<svg width="38" height="38" viewBox="0 0 38 38" fill="none" xmlns="http://www.w3.org/2000/svg">
<path d="M12.6666 23.75H15.8333V19H21.375V22.9584L26.9166 17.4167L21.375 11.875V15.8334H14.25C13.8013 15.8334 13.4256 15.9854 13.1226 16.2894C12.8197 16.5934 12.6677 16.9691 12.6666 17.4167V23.75ZM19 34.8334C18.6041 34.8334 18.2152 34.7542 17.833 34.5959C17.4509 34.4375 17.101 34.2 16.7833 33.8834L4.11663 21.2167C3.79996 20.9 3.56246 20.5501 3.40413 20.167C3.24579 19.7838 3.16663 19.3948 3.16663 19C3.16663 18.6042 3.24579 18.2152 3.40413 17.8331C3.56246 17.451 3.79996 17.1011 4.11663 16.7834L16.7833 4.1167C17.1 3.80004 17.4499 3.56254 17.833 3.4042C18.2162 3.24587 18.6052 3.1667 19 3.1667C19.3958 3.1667 19.7853 3.24587 20.1685 3.4042C20.5516 3.56254 20.901 3.80004 21.2166 4.1167L33.8833 16.7834C34.2 17.1 34.4375 17.45 34.5958 17.8331C34.7541 18.2163 34.8333 18.6053 34.8333 19C34.8333 19.3959 34.7541 19.7854 34.5958 20.1685C34.4375 20.5517 34.2 20.9011 33.8833 21.2167L21.2166 33.8834C20.9 34.2 20.55 34.4375 20.1669 34.5959C19.7837 34.7542 19.3947 34.8334 19 34.8334Z" fill="#7077A1"/>
</svg>
