<svg width="34" height="34" viewBox="0 0 34 34" fill="none" xmlns="http://www.w3.org/2000/svg">
<path d="M7.26923 16.2066L16.2063 7.27088L13.2764 4.34101L9.18042 8.43699C9.13157 8.48593 9.07355 8.52475 9.00968 8.55124C8.94582 8.57773 8.87735 8.59137 8.8082 8.59137C8.73906 8.59137 8.67059 8.57773 8.60672 8.55124C8.54286 8.52475 8.48484 8.48593 8.43599 8.43699L7.69157 7.69257C7.48571 7.4867 7.48571 7.15334 7.69157 6.94815L11.7875 2.85217L9.55362 0.617583C8.73084 -0.205197 7.39739 -0.205197 6.57461 0.617583L0.617255 6.57494C-0.204861 7.39772 -0.205525 8.73117 0.617255 9.55395L7.26923 16.2066ZM33.0663 8.45027C34.3121 7.20448 34.3114 5.18504 33.0663 3.93925L30.0614 0.934344C28.8156 -0.311448 26.7955 -0.311448 25.549 0.934344L22.493 3.98972L30.0102 11.507L33.0663 8.45027ZM20.9902 5.49317L1.26738 25.2133L0.0215861 32.3481C-0.146423 33.3103 0.691631 34.1484 1.65453 33.979L8.78994 32.7279L28.5075 13.0098L20.9902 5.49317ZM33.3837 24.4477L31.1498 22.2137L27.0538 26.3097C26.8479 26.5156 26.5146 26.5156 26.3094 26.3097L25.565 25.5653C25.3598 25.3594 25.3598 25.0261 25.565 24.8209L29.6609 20.7249L26.7297 17.7937L17.7927 26.7294L24.4473 33.3834C25.2701 34.2062 26.6036 34.2062 27.4264 33.3834L33.3837 27.4267C34.2065 26.6039 34.2065 25.2705 33.3837 24.4477Z" fill="#7077A1"/>
</svg>
