<svg width="44" height="44" viewBox="0 0 44 44" fill="none" xmlns="http://www.w3.org/2000/svg">
<g clip-path="url(#clip0_58_108)">
<rect width="44" height="44" rx="22" fill="#F6B17A"/>
<path d="M22.3937 28.7226C26.3379 28.7226 29.5353 25.5252 29.5353 21.581C29.5353 17.6368 26.3379 14.4393 22.3937 14.4393C18.4495 14.4393 15.252 17.6368 15.252 21.581C15.252 25.5252 18.4495 28.7226 22.3937 28.7226Z" fill="#FFB6B6"/>
<path d="M18.2939 29.7788L17.9712 26.5174L24.4142 25.3126L28.2187 34.5758L21.6022 42.1848L16.8879 32.9216L18.2939 29.7788Z" fill="#FFB6B6"/>
<path d="M17.8678 28.1498L19.2763 28.4681C19.2763 28.4681 18.169 24.9568 18.5449 24.6216C18.9207 24.2863 19.8417 24.8146 19.8417 24.8146L20.8096 25.8997L21.9885 24.6994C21.9885 24.6994 23.2683 23.1079 23.7695 22.661C24.2706 22.214 23.4657 20.555 23.4657 20.555C23.4657 20.555 30.9003 18.5502 28.1339 14.9442C28.1339 14.9442 26.5119 12.1169 25.9837 13.0379C25.4555 13.9589 24.8257 12.4961 24.8257 12.4961L22.9025 12.8619C22.9025 12.8619 19.1067 10.6238 15.5041 15.4117C11.9014 20.1996 17.8678 28.1498 17.8678 28.1498Z" fill="#2F2E41"/>
<path d="M35.8253 39.1162C31.9223 42.2806 27.0939 44.0001 22 44.0001C17.3486 44.0001 12.918 42.5659 9.21188 39.9077C9.2185 39.8382 9.22512 39.7696 9.23091 39.701C9.32933 38.6258 9.417 37.5804 9.47489 36.7136C9.69902 33.3482 17.5504 31.1052 17.5504 31.1052C17.5504 31.1052 17.5859 31.1408 17.6571 31.2028C18.0905 31.5833 19.8496 32.9628 22.9346 33.3482C25.6854 33.6923 26.5911 32.0605 26.8648 31.2789C26.9475 31.0407 26.9723 30.8811 26.9723 30.8811L35.0478 34.6947C35.5747 35.4473 35.7806 37.0684 35.8211 38.8904C35.8228 38.9657 35.8244 39.0401 35.8253 39.1162Z" fill="#6C63FF"/>
</g>
<defs>
<clipPath id="clip0_58_108">
<rect width="44" height="44" fill="white"/>
</clipPath>
</defs>
</svg>
