<svg width="27" height="27" viewBox="0 0 27 27" fill="none" xmlns="http://www.w3.org/2000/svg">
<path d="M25.6288 10.1303C25.5006 9.73722 25.2597 9.39051 24.9361 9.13325C24.6124 8.87598 24.2203 8.71949 23.8085 8.68324L17.7967 8.16328L15.4448 2.55867C15.283 2.17753 15.0126 1.85244 14.6673 1.62391C14.3221 1.39538 13.9172 1.27352 13.5031 1.27352C13.0891 1.27352 12.6842 1.39538 12.3389 1.62391C11.9936 1.85244 11.7232 2.17753 11.5614 2.55867L9.20631 8.16328L3.19459 8.68324C2.78051 8.71753 2.38577 8.87334 2.05992 9.13113C1.73406 9.38893 1.49159 9.73721 1.36294 10.1323C1.23429 10.5274 1.22518 10.9516 1.33676 11.3519C1.44834 11.7521 1.67564 12.1105 1.99014 12.382L6.55904 16.3687L5.18795 22.3003C5.09392 22.7042 5.12103 23.1269 5.2659 23.5155C5.41077 23.904 5.66697 24.2413 6.00246 24.4851C6.33795 24.7288 6.73786 24.8683 7.15219 24.886C7.56651 24.9038 7.97688 24.799 8.33197 24.5848L13.4999 21.446L18.6679 24.5848C19.023 24.7986 19.4332 24.9032 19.8474 24.8853C20.2615 24.8674 20.6612 24.7278 20.9965 24.4841C21.3318 24.2404 21.5878 23.9033 21.7327 23.5149C21.8775 23.1265 21.9047 22.7041 21.8109 22.3003L20.4398 16.3687L25.0087 12.382C25.3223 12.1095 25.5485 11.7504 25.6589 11.3498C25.7692 10.9492 25.7587 10.525 25.6288 10.1303ZM18.5888 14.6253C18.2996 14.877 18.0844 15.2027 17.9664 15.5675C17.8484 15.9323 17.832 16.3223 17.9191 16.6957L19.1204 21.8974L14.5915 19.1468C14.2627 18.9465 13.885 18.8406 13.4999 18.8406C13.1149 18.8406 12.7372 18.9465 12.4083 19.1468L7.87951 21.8974L9.0808 16.6957C9.16786 16.3223 9.15151 15.9323 9.0335 15.5675C8.9155 15.2027 8.70032 14.877 8.41107 14.6253L4.39377 11.1206L9.68197 10.6629C10.0649 10.6301 10.4315 10.4929 10.7419 10.2662C11.0523 10.0395 11.2945 9.73203 11.4422 9.37723L13.4999 4.47398L15.5576 9.37723C15.7054 9.73203 15.9476 10.0395 16.258 10.2662C16.5684 10.4929 16.935 10.6301 17.3179 10.6629L22.6061 11.1206L18.5888 14.6253Z" fill="#7077A1"/>
</svg>
