<svg width="22" height="30" viewBox="0 0 22 30" fill="none" xmlns="http://www.w3.org/2000/svg">
<path fill-rule="evenodd" clip-rule="evenodd" d="M22 17.1869C22 13.5003 22 11.6577 21.0733 10.3335C20.6718 9.76007 20.156 9.26773 19.5553 8.88457C18.1679 8 16.2387 8 12.375 8H9.625C5.76262 8 3.83212 8 2.44475 8.88457C1.84395 9.26768 1.32813 9.76003 0.92675 10.3335C-3.27826e-07 11.6577 0 13.499 0 17.1869C0 20.8735 -3.27826e-07 22.7162 0.92675 24.0404C1.32813 24.6138 1.84395 25.1062 2.44475 25.4893C3.65612 26.2623 5.28275 26.3594 8.25 26.3726L9.77075 29.2756C9.88507 29.4933 10.0606 29.6764 10.2777 29.8043C10.4948 29.9322 10.7449 30 11 30C11.2551 30 11.5052 29.9322 11.7223 29.8043C11.9394 29.6764 12.1149 29.4933 12.2293 29.2756L13.75 26.3739C16.7172 26.3607 18.3425 26.2623 19.5553 25.4893C20.156 25.1061 20.6718 24.6138 21.0733 24.0404C22 22.7162 22 20.8748 22 17.1869ZM5.5 18.4994C5.86467 18.4994 6.21441 18.3611 6.47227 18.115C6.73013 17.8688 6.875 17.535 6.875 17.1869C6.875 16.8389 6.73013 16.505 6.47227 16.2589C6.21441 16.0128 5.86467 15.8745 5.5 15.8745C5.13533 15.8745 4.78559 16.0128 4.52773 16.2589C4.26987 16.505 4.125 16.8389 4.125 17.1869C4.125 17.535 4.26987 17.8688 4.52773 18.115C4.78559 18.3611 5.13533 18.4994 5.5 18.4994ZM12.375 17.1869C12.375 17.535 12.2301 17.8688 11.9723 18.115C11.7144 18.3611 11.3647 18.4994 11 18.4994C10.6353 18.4994 10.2856 18.3611 10.0277 18.115C9.76987 17.8688 9.625 17.535 9.625 17.1869C9.625 16.8389 9.76987 16.505 10.0277 16.2589C10.2856 16.0128 10.6353 15.8745 11 15.8745C11.3647 15.8745 11.7144 16.0128 11.9723 16.2589C12.2301 16.505 12.375 16.8389 12.375 17.1869ZM17.875 17.1869C17.875 17.535 17.7301 17.8688 17.4723 18.115C17.2144 18.3611 16.8647 18.4994 16.5 18.4994C16.1353 18.4994 15.7856 18.3611 15.5277 18.115C15.2699 17.8688 15.125 17.535 15.125 17.1869C15.125 16.8389 15.2699 16.505 15.5277 16.2589C15.7856 16.0128 16.1353 15.8745 16.5 15.8745C16.8647 15.8745 17.2144 16.0128 17.4723 16.2589C17.7301 16.505 17.875 16.8389 17.875 17.1869Z" fill="#FAFAFA"/>
</svg>
