<svg width="25" height="25" viewBox="0 0 25 25" fill="none" xmlns="http://www.w3.org/2000/svg">
<path fill-rule="evenodd" clip-rule="evenodd" d="M25 10.4397C25 6.2504 25 4.15649 23.9469 2.65168C23.4907 2.00008 22.9045 1.44061 22.2219 1.00519C20.6453 -3.55574e-07 18.4531 0 14.0625 0H10.9375C6.54844 0 4.35469 -3.55574e-07 2.77812 1.00519C2.0954 1.44055 1.50924 2.00003 1.05312 2.65168C-3.72529e-07 4.15649 0 6.24891 0 10.4397C0 14.629 -3.72529e-07 16.7229 1.05312 18.2277C1.50924 18.8794 2.0954 19.4389 2.77812 19.8742C4.15469 20.7526 6.00313 20.863 9.375 20.8779L11.1031 24.1769C11.233 24.4242 11.4325 24.6323 11.6792 24.7776C11.9259 24.923 12.2101 25 12.5 25C12.7899 25 13.0741 24.923 13.3208 24.7776C13.5675 24.6323 13.767 24.4242 13.8969 24.1769L15.625 20.8794C18.9969 20.8645 20.8438 20.7526 22.2219 19.8742C22.9045 19.4388 23.4907 18.8793 23.9469 18.2277C25 16.7229 25 14.6305 25 10.4397ZM6.25 11.9311C6.6644 11.9311 7.06183 11.774 7.35485 11.4943C7.64788 11.2146 7.8125 10.8352 7.8125 10.4397C7.8125 10.0442 7.64788 9.66482 7.35485 9.38513C7.06183 9.10544 6.6644 8.94831 6.25 8.94831C5.8356 8.94831 5.43817 9.10544 5.14515 9.38513C4.85212 9.66482 4.6875 10.0442 4.6875 10.4397C4.6875 10.8352 4.85212 11.2146 5.14515 11.4943C5.43817 11.774 5.8356 11.9311 6.25 11.9311ZM14.0625 10.4397C14.0625 10.8352 13.8979 11.2146 13.6049 11.4943C13.3118 11.774 12.9144 11.9311 12.5 11.9311C12.0856 11.9311 11.6882 11.774 11.3951 11.4943C11.1021 11.2146 10.9375 10.8352 10.9375 10.4397C10.9375 10.0442 11.1021 9.66482 11.3951 9.38513C11.6882 9.10544 12.0856 8.94831 12.5 8.94831C12.9144 8.94831 13.3118 9.10544 13.6049 9.38513C13.8979 9.66482 14.0625 10.0442 14.0625 10.4397ZM20.3125 10.4397C20.3125 10.8352 20.1479 11.2146 19.8549 11.4943C19.5618 11.774 19.1644 11.9311 18.75 11.9311C18.3356 11.9311 17.9382 11.774 17.6451 11.4943C17.3521 11.2146 17.1875 10.8352 17.1875 10.4397C17.1875 10.0442 17.3521 9.66482 17.6451 9.38513C17.9382 9.10544 18.3356 8.94831 18.75 8.94831C19.1644 8.94831 19.5618 9.10544 19.8549 9.38513C20.1479 9.66482 20.3125 10.0442 20.3125 10.4397Z" fill="#7077A1"/>
</svg>
