<svg width="18" height="32" viewBox="0 0 18 32" fill="none" xmlns="http://www.w3.org/2000/svg">
<g clip-path="url(#clip0_79_17)">
<path fill-rule="evenodd" clip-rule="evenodd" d="M0.03199 13.5014C-0.333343 14.2974 -0.333344 15.2028 -0.333344 17.0134V22.6668C-0.333344 25.1828 -0.333344 26.4401 0.44799 27.2201C1.15599 27.9294 2.25732 27.9934 4.33332 28.0001V21.3334C4.33332 20.6262 4.61427 19.9479 5.11437 19.4478C5.61447 18.9477 6.29275 18.6668 6.99999 18.6668H11C11.7072 18.6668 12.3855 18.9477 12.8856 19.4478C13.3857 19.9479 13.6667 20.6262 13.6667 21.3334V28.0001C15.7427 27.9934 16.844 27.9281 17.552 27.2188C18.3333 26.4374 18.3333 25.1814 18.3333 22.6668V17.0134C18.3333 15.2028 18.3333 14.2974 17.968 13.5014C17.6013 12.7054 16.9147 12.1174 15.54 10.9388L14.2067 9.7961C11.72 7.66676 10.48 6.6001 8.99999 6.6001C7.51999 6.6001 6.27866 7.66543 3.79332 9.79476L2.45999 10.9374C1.08666 12.1161 0.398657 12.7041 0.0333233 13.5001M11 28.0001V21.3334H6.99999V28.0001H11Z" fill="white"/>
</g>
<defs>
<clipPath id="clip0_79_17">
<rect width="18" height="32" fill="white"/>
</clipPath>
</defs>
</svg>
