<svg width="142" height="88" viewBox="0 0 142 88" fill="none" xmlns="http://www.w3.org/2000/svg">
<g clip-path="url(#clip0_58_116)">
<path opacity="0.1" d="M142 56.4666C142.002 58.8486 141.716 61.222 141.148 63.5342C140.956 64.3125 140.734 65.0754 140.481 65.8229C140.171 66.7444 139.812 67.6486 139.405 68.5315C139.2 68.9772 138.984 69.4149 138.756 69.8445C138.759 72.2871 138.26 74.704 137.288 76.9424C135.532 80.9581 132.401 84.2051 128.466 86.0924C126.002 87.2753 123.309 87.8968 120.58 87.9127H26.9563C22.7905 87.9221 18.6965 86.8209 15.0906 84.7211C14.5577 84.4105 14.0385 84.0796 13.533 83.7285C12.4353 82.9652 11.404 82.1094 10.4502 81.1703C9.15897 79.899 8.02143 78.4787 7.06121 76.9388C4.80525 73.3332 3.61016 69.1581 3.61435 64.897C1.3297 60.862 -0.00250244 56.0285 -0.00250244 50.8346C-0.00250244 44.2816 2.11456 38.3038 5.59277 33.7785C6.31791 32.8331 7.11221 31.9436 7.96904 31.1173C8.81446 30.2996 9.72315 29.551 10.6865 28.8783C11.457 28.3392 12.2625 27.8527 13.0977 27.4221C13.4462 27.2425 13.7958 27.075 14.1514 26.9185C14.4637 26.7789 14.7796 26.6491 15.0991 26.5265C15.4824 26.3793 15.8707 26.2446 16.2637 26.1224C16.6567 26.0002 17.0445 25.8926 17.4271 25.7996C17.9897 25.6613 18.562 25.5488 19.1439 25.4623C19.6262 25.3907 20.1084 25.3409 20.5906 25.3021C20.974 25.2746 21.3606 25.2584 21.7504 25.2535H21.9614C22.3906 25.2535 22.8174 25.2705 23.2406 25.2996C23.2852 25.2098 23.3334 25.1188 23.378 25.029C23.5468 24.7062 23.7216 24.3834 23.8977 24.0667V24.0582C23.9278 24.0036 23.9579 23.949 23.9893 23.8956C24.1315 23.6371 24.2798 23.3811 24.4317 23.1274C24.5017 23.0061 24.5704 22.892 24.6415 22.7767C24.6572 22.7488 24.6729 22.7221 24.691 22.6942C24.7633 22.5728 24.8368 22.4515 24.9116 22.3301C25.2837 21.7323 25.6707 21.1437 26.0726 20.5645C26.1075 20.5147 26.1401 20.4662 26.1751 20.4176C26.2378 20.3278 26.2956 20.2392 26.3656 20.1507C26.5319 19.9164 26.7031 19.681 26.8755 19.4492C26.9961 19.2854 27.1166 19.1216 27.2469 18.9638C27.5603 18.5561 27.8822 18.1508 28.2113 17.7503C28.5405 17.3498 28.8877 16.9469 29.2385 16.5525C29.2868 16.4979 29.335 16.4445 29.3856 16.3899L29.9004 15.8256C29.9257 15.799 29.9474 15.7747 29.9716 15.7504C30.033 15.6837 30.0921 15.6169 30.1584 15.5514C30.4345 15.2577 30.7178 14.9677 31.0024 14.6813C32.4557 13.2278 34.0039 11.8737 35.6367 10.6281C35.7006 10.5771 35.7657 10.5286 35.8296 10.4801C36.1359 10.2471 36.4469 10.0177 36.758 9.792C38.4692 8.557 40.2576 7.43419 42.1121 6.43053C42.2399 6.35772 42.3701 6.28855 42.5015 6.21938C44.1646 5.33438 45.8748 4.54197 47.6242 3.84573C48.5774 3.4663 49.5476 3.11195 50.5346 2.78268C51.188 2.56788 51.8439 2.3628 52.5082 2.17591C53.5353 1.87901 54.5754 1.61122 55.6283 1.37256C58.7302 0.671975 61.8859 0.239197 65.061 0.0789426C66.0255 0.0279746 67.0009 0.00249086 67.9871 0.00249086C72.7457 -0.00385029 77.4857 0.599674 82.0928 1.79851C82.1404 1.87097 82.2056 1.93004 82.2821 1.97016C82.3587 2.01028 82.4441 2.03014 82.5304 2.02786H82.9355C83.1115 2.07519 83.2864 2.12495 83.4624 2.17591C84.4454 2.4615 85.4143 2.77256 86.3691 3.10912L86.6102 3.19649C88.9669 4.03999 91.26 5.0539 93.4714 6.2303C95.4646 7.28864 97.384 8.48227 99.2162 9.80292C99.4983 10.0068 99.7764 10.2127 100.05 10.4206C100.383 10.2046 100.722 9.9987 101.066 9.80292C102.394 9.04175 103.805 8.43668 105.271 7.99962C108.335 7.08683 111.578 6.95919 114.704 7.62828C118.712 8.48382 122.341 10.6075 125.272 13.628C126.466 14.8598 127.529 16.2133 128.445 17.6666C128.511 17.7709 128.578 17.8765 128.642 17.9833C129.427 19.2739 130.102 20.6295 130.66 22.0353C130.68 22.0862 130.701 22.136 130.719 22.1869C131.234 23.5025 131.649 24.8554 131.961 26.2341C131.975 26.3032 131.992 26.3736 132.007 26.444C132.298 27.7782 132.497 29.1314 132.6 30.4935C132.6 30.5421 132.6 30.5918 132.609 30.6416C132.66 31.3462 132.686 32.0586 132.687 32.7786C132.687 33.4218 132.665 34.0601 132.625 34.6923C132.625 34.7615 132.615 34.8343 132.609 34.9047C132.599 35.0891 132.583 35.2687 132.567 35.4544C133.488 36.2016 134.35 37.0195 135.145 37.9009C135.496 38.2868 135.836 38.6877 136.165 39.1035C137.166 40.3665 138.046 41.7224 138.793 43.153C140.828 47.0339 142 51.5894 142 56.4666Z" fill="#F6B17A"/>
<path opacity="0.1" d="M128.377 80.3524C128.377 83.1107 125.536 85.6919 120.58 87.9151H26.9564C22.6246 87.9151 18.5677 86.3375 15.0907 83.5864C14.2166 82.5428 13.7561 81.4616 13.7561 80.3512C13.7561 77.4193 16.9679 74.6828 22.5209 72.3698L22.6777 72.3067C24.245 71.6599 25.9967 71.0495 27.9112 70.4755C27.9595 70.4609 28.0089 70.4476 28.0571 70.4306C29.5762 69.9816 31.1921 69.5561 32.9049 69.154C32.9592 69.1418 33.0122 69.1285 33.0665 69.1188C33.7271 68.961 34.4011 68.8142 35.0895 68.6674L35.3547 68.6115C40.3641 67.5655 46.0582 66.7354 52.2334 66.1724H52.2406C53.1054 66.0915 53.9795 66.019 54.8628 65.9551C55.8454 65.8762 56.84 65.8095 57.8455 65.7476C58.6135 65.6979 59.3911 65.6554 60.1711 65.6166C60.174 65.6153 60.1771 65.6147 60.1802 65.6147C60.1833 65.6147 60.1864 65.6153 60.1892 65.6166C63.7084 65.4382 67.3446 65.3447 71.0627 65.3447C80.2567 65.3447 88.9468 65.9127 96.6471 66.9223C96.6543 66.921 96.6616 66.921 96.6688 66.9223C97.8527 67.0776 99.0149 67.2415 100.148 67.4162C100.473 67.4672 100.796 67.5181 101.113 67.5703C102.391 67.7782 103.637 67.9979 104.85 68.2293C119.113 70.9585 128.377 75.3745 128.377 80.3524Z" fill="#F6B17A"/>
<path d="M105.07 29.5227C105.07 29.5227 103.794 29.0021 99.7359 30.8746C95.6778 32.747 95.1714 32.5104 94.1213 32.2289C93.0712 31.9473 92.4853 31.8745 91.3593 30.3103C91.3593 30.3103 90.5648 25.9768 89.792 25.3045C89.0192 24.6322 85.7568 25.688 85.7568 25.688C85.7568 25.688 81.8397 26.592 81.0934 21.3193C81.0934 21.3193 81.6227 17.3486 80.9017 16.1302C80.9017 16.1302 82.3581 16.7613 84.7597 15.7419C87.1613 14.7225 89.0843 16.8401 89.0843 16.8401C89.0843 16.8401 89.6871 18.4177 89.6268 19.3594C89.5665 20.3011 89.9475 20.6543 91.0928 20.1992C91.0928 20.1992 91.6558 19.3934 90.8589 18.0609C90.062 16.7285 89.493 15.737 89.7148 14.7031C89.9366 13.6692 90.5768 12.2336 92.6324 11.5164C94.688 10.7992 97.479 10.6669 98.8184 10.1002C100.158 9.5335 100.488 9.17188 100.488 9.17188C100.488 9.17188 99.6636 10.0031 101.606 13.5284C103.548 17.0537 102.31 18.5828 102.31 18.5828C102.31 18.5828 101.277 21.062 96.7146 20.8606C96.7146 20.8606 92.3189 21.0219 94.7157 22.8981C94.7157 22.8981 96.2504 22.5838 98.5447 21.8496C100.839 21.1154 102.496 24.1456 102.907 26.2535C103.318 28.3614 105.07 29.5227 105.07 29.5227Z" fill="#F6B17A"/>
<path d="M99.1608 11.8416L99.1849 11.8344C99.3609 12.5066 97.397 15.2104 95.7176 17.3595L95.6983 17.3438C98.0661 14.3172 99.297 12.3622 99.1608 11.8416Z" fill="#444053"/>
<path d="M95.732 17.3025L95.7429 17.3292C94.401 19.0451 92.7144 21.0911 91.3641 22.6117C91.2351 22.7561 91.1073 22.9078 90.9843 23.0631L90.9457 23.0315C91.0663 22.8762 91.1977 22.7233 91.3267 22.5789C92.6758 21.0644 94.389 19.0196 95.732 17.3025Z" fill="#444053"/>
<path d="M90.9783 22.9927L91.0048 23.0388C88.5478 26.1272 88.385 30.9267 88.379 30.9643L87.8605 30.3576C87.8666 30.3187 88.5044 26.1029 90.9783 22.9927Z" fill="#444053"/>
<path d="M102.225 27.8479C102.225 27.8479 99.332 26.331 97.0703 26.8771C94.8085 27.4232 89.722 24.9476 89.722 24.9476C89.722 24.9476 87.564 24.0654 87.13 23.0594C87.13 23.0594 85.6482 21.4818 85.5627 20.6675C85.4771 19.8532 84.0363 17.8012 83.096 17.7223" stroke="#444053" stroke-miterlimit="10"/>
<path d="M101.8 29.3079C101.8 29.3079 100.341 28.3176 100.511 27.1648" stroke="#444053" stroke-miterlimit="10"/>
<path d="M99.5623 30.5857C99.5623 30.5857 97.4754 29.8236 97.2716 26.8335" stroke="#444053" stroke-miterlimit="10"/>
<path d="M96.1974 31.3599C96.1974 31.3599 94.2033 29.6949 94.8652 26.7849" stroke="#444053" stroke-miterlimit="10"/>
<path d="M92.1477 30.5469C92.1477 30.5469 90.8215 27.7436 92.0018 25.9197" stroke="#444053" stroke-miterlimit="10"/>
<path d="M102.253 25.9998C102.253 25.9998 100.745 26.4852 101.068 27.2812" stroke="#444053" stroke-miterlimit="10"/>
<path d="M100.433 23.2488C100.433 23.2488 98.4133 23.8932 98.3663 26.768" stroke="#444053" stroke-miterlimit="10"/>
<path d="M97.6164 22.5789C97.6164 22.5789 95.7778 24.8627 95.9129 26.9378" stroke="#444053" stroke-miterlimit="10"/>
<path d="M94.3974 23.4745C94.3974 23.4745 92.5721 25.2317 92.8048 26.2086" stroke="#444053" stroke-miterlimit="10"/>
<path d="M93.2967 22.8543C93.2967 22.8543 91.5847 23.1625 91.3448 22.597" stroke="#444053" stroke-miterlimit="10"/>
<path d="M91.0723 20.7743C91.0723 20.7743 91.9367 21.9271 92.1574 21.6687" stroke="#444053" stroke-miterlimit="10"/>
<path d="M99.6467 20.045C99.6467 20.045 95.3306 20.3605 94.354 19.0499" stroke="#444053" stroke-miterlimit="10"/>
<path d="M90.1693 14.964C90.1693 14.964 92.1935 19.3387 93.6656 19.8958" stroke="#444053" stroke-miterlimit="10"/>
<path d="M92.2888 12.8804C92.2888 12.8804 93.5318 16.9044 95.0726 18.1604" stroke="#444053" stroke-miterlimit="10"/>
<path d="M101.462 16.7235C101.462 16.7235 98.1806 18.1409 96.2107 16.7065" stroke="#444053" stroke-width="0.75" stroke-miterlimit="10"/>
<path d="M95.2112 12.0223C95.2112 12.0223 95.9611 14.9797 96.9714 15.6945" stroke="#444053" stroke-width="0.75" stroke-miterlimit="10"/>
<path d="M100.967 13.4094C100.967 13.4094 99.1222 14.1133 98.435 13.5745" stroke="#444053" stroke-width="0.75" stroke-miterlimit="10"/>
<path d="M89.4918 21.7404C89.4918 21.7404 89.4918 24.3191 88.7949 24.5023" stroke="#444053" stroke-miterlimit="10"/>
<path d="M83.7904 25.0812C83.7904 25.0812 86.5633 25.3239 87.8376 23.881" stroke="#444053" stroke-miterlimit="10"/>
<path d="M88.778 18.6943C88.778 18.6943 88.1077 21.3095 86.2583 22.0145" stroke="#444053" stroke-miterlimit="10"/>
<path d="M82.1291 22.3265C82.1291 22.3265 84.0894 23.0121 85.776 21.2659" stroke="#444053" stroke-miterlimit="10"/>
<path d="M86.5971 16.4457C86.5971 16.4457 86.4126 18.6664 85.213 19.7064" stroke="#444053" stroke-miterlimit="10"/>
<path d="M82.2038 18.942C82.2038 18.942 83.8302 18.9529 84.2112 18.4189" stroke="#444053" stroke-miterlimit="10"/>
<path d="M93.967 27.3748H47.6472V50.9099H93.967V27.3748Z" fill="#33323D"/>
<path d="M108.543 58.0599H33.2184V73.5518H108.543V58.0599Z" fill="#33323D"/>
<path d="M51.1989 61.9323H89.8233L97.5188 88H43.0598L51.1989 61.9323Z" fill="white"/>
<path d="M31.0724 48.8237V56.8682V58.5623V73.5505H45.5012V59.2516H96.2601V73.5505H110.689V58.5623V56.8682V48.8237H31.0724Z" fill="#504F60"/>
<path opacity="0.1" d="M110.689 48.8237H31.0724V56.867H110.689V48.8237Z" fill="#33323D"/>
<path opacity="0.8" d="M106.398 54.0383C107.052 54.0383 107.582 53.5047 107.582 52.8466C107.582 52.1884 107.052 51.6549 106.398 51.6549C105.744 51.6549 105.214 52.1884 105.214 52.8466C105.214 53.5047 105.744 54.0383 106.398 54.0383Z" fill="#8CCF4D"/>
<path opacity="0.8" d="M101.071 54.0383C101.724 54.0383 102.254 53.5047 102.254 52.8466C102.254 52.1884 101.724 51.6549 101.071 51.6549C100.417 51.6549 99.8866 52.1884 99.8866 52.8466C99.8866 53.5047 100.417 54.0383 101.071 54.0383Z" fill="#FA5959"/>
<path d="M92.2659 21.7136H49.3495V47.3336H92.2659V21.7136Z" fill="white"/>
<path d="M98.7943 59.1071C98.8847 60.0986 98.1409 61.0609 98.3579 62.0317C98.4037 62.2393 98.4929 62.4358 98.5254 62.6385C98.6147 63.2149 98.2735 63.761 97.9468 64.244L95.1461 68.3918C95.0338 68.5738 94.8993 68.7409 94.7458 68.8894C94.2093 69.3748 93.4064 69.319 92.7035 69.4622C92.2094 69.563 91.7426 69.77 91.3351 70.0689C91.3174 70.0831 91.3057 70.1035 91.3023 70.126C91.2989 70.1485 91.3042 70.1715 91.3171 70.1903C91.4329 70.3503 91.5867 70.4785 91.7645 70.5633C91.9422 70.6481 92.1382 70.6867 92.3346 70.6757C92.4081 70.7728 92.3346 70.9184 92.2333 70.9863C92.0826 71.0907 91.8716 71.1186 91.8463 71.3759C91.8357 71.4653 91.8535 71.5557 91.897 71.6344C92.0103 71.8081 92.1862 71.9308 92.3877 71.9766C93.3521 72.2751 94.4047 71.7509 95.1304 71.0373C95.8562 70.3238 96.377 69.4233 97.0896 68.6964C97.4838 68.2947 97.9335 67.9501 98.3386 67.5606C99.1488 66.7839 99.7853 65.8386 100.388 64.8908C100.587 64.616 100.737 64.3084 100.832 63.9819C100.907 63.6591 100.873 63.3181 100.96 62.9977C101.073 62.579 101.378 62.2453 101.631 61.8934C102.129 61.2041 102.461 60.3619 102.394 59.5125C102.328 58.663 101.807 57.8269 101.011 57.5381C100.765 57.4392 100.493 57.4226 100.236 57.4907C99.9095 57.5914 99.6696 57.8633 99.4465 58.123L98.9149 58.7407C98.7823 58.8774 98.6772 59.0385 98.605 59.2151C98.5708 59.3042 98.5629 59.4014 98.5824 59.4948C98.6018 59.5883 98.6478 59.6741 98.7147 59.7418" fill="#FBBEBE"/>
<path opacity="0.05" d="M98.7943 59.1071C98.8847 60.0986 98.1409 61.0609 98.3579 62.0317C98.4037 62.2393 98.4929 62.4358 98.5254 62.6385C98.6147 63.2149 98.2735 63.761 97.9468 64.244L95.1461 68.3918C95.0338 68.5738 94.8993 68.7409 94.7458 68.8894C94.2093 69.3748 93.4064 69.319 92.7035 69.4622C92.2094 69.563 91.7426 69.77 91.3351 70.0689C91.3174 70.0831 91.3057 70.1035 91.3023 70.126C91.2989 70.1485 91.3042 70.1715 91.3171 70.1903C91.4329 70.3503 91.5867 70.4785 91.7645 70.5633C91.9422 70.6481 92.1382 70.6867 92.3346 70.6757C92.4081 70.7728 92.3346 70.9184 92.2333 70.9863C92.0826 71.0907 91.8716 71.1186 91.8463 71.3759C91.8357 71.4653 91.8535 71.5557 91.897 71.6344C92.0103 71.8081 92.1862 71.9308 92.3877 71.9766C93.3521 72.2751 94.4047 71.7509 95.1304 71.0373C95.8562 70.3238 96.377 69.4233 97.0896 68.6964C97.4838 68.2947 97.9335 67.9501 98.3386 67.5606C99.1488 66.7839 99.7853 65.8386 100.388 64.8908C100.587 64.616 100.737 64.3084 100.832 63.9819C100.907 63.6591 100.873 63.3181 100.96 62.9977C101.073 62.579 101.378 62.2453 101.631 61.8934C102.129 61.2041 102.461 60.3619 102.394 59.5125C102.328 58.663 101.807 57.8269 101.011 57.5381C100.765 57.4392 100.493 57.4226 100.236 57.4907C99.9095 57.5914 99.6696 57.8633 99.4465 58.123L98.9149 58.7407C98.7823 58.8774 98.6772 59.0385 98.605 59.2151C98.5708 59.3042 98.5629 59.4014 98.5824 59.4948C98.6018 59.5883 98.6478 59.6741 98.7147 59.7418" fill="black"/>
<path d="M100.915 84.6264C100.303 85.0014 99.5406 85.0257 98.8293 84.9371C98.7087 84.9237 98.5797 84.9152 98.5062 85.0038C98.4001 85.1337 98.5254 85.323 98.6544 85.4273C99.0747 85.744 99.5679 85.9482 100.088 86.0207C100.552 86.0859 101.02 86.1171 101.489 86.1142C102.767 86.136 104.052 86.1579 105.318 85.9722C105.391 85.9667 105.462 85.9456 105.526 85.9103C105.608 85.8529 105.665 85.766 105.684 85.6676C105.772 85.3375 105.605 84.9807 105.353 84.7514C105.101 84.522 104.777 84.3934 104.459 84.266L103.348 83.8303C103.086 83.7272 102.668 83.4566 102.383 83.4772C101.864 83.5197 101.356 84.3667 100.915 84.6264Z" fill="#3F3D56"/>
<path opacity="0.05" d="M100.915 84.6264C100.303 85.0014 99.5406 85.0257 98.8293 84.9371C98.7087 84.9237 98.5797 84.9152 98.5062 85.0038C98.4001 85.1337 98.5254 85.323 98.6544 85.4273C99.0747 85.744 99.5679 85.9482 100.088 86.0207C100.552 86.0859 101.02 86.1171 101.489 86.1142C102.767 86.136 104.052 86.1579 105.318 85.9722C105.391 85.9667 105.462 85.9456 105.526 85.9103C105.608 85.8529 105.665 85.766 105.684 85.6676C105.772 85.3375 105.605 84.9807 105.353 84.7514C105.101 84.522 104.777 84.3934 104.459 84.266L103.348 83.8303C103.086 83.7272 102.668 83.4566 102.383 83.4772C101.864 83.5197 101.356 84.3667 100.915 84.6264Z" fill="black"/>
<path d="M101.69 69.7668C101.228 70.3869 100.749 71.1016 100.863 71.8698C100.925 72.2836 101.155 72.6489 101.324 73.0311C101.535 73.557 101.691 74.1036 101.79 74.6621C101.964 75.474 102.137 76.2882 102.244 77.1122C102.364 78.043 101.797 80.7358 101.744 81.6739C101.731 81.8996 101.706 82.1447 101.549 82.3073C101.488 82.3716 101.406 82.4287 101.379 82.5076C101.362 82.5878 101.375 82.6716 101.415 82.743C101.677 83.3364 102.211 83.7769 102.804 84.0293C103.397 84.2817 104.84 84.715 105.484 84.738C105.57 84.7484 105.656 84.7367 105.736 84.704C105.823 84.6517 105.891 84.5732 105.932 84.4795C106.397 83.5852 105.95 80.4009 105.957 79.39C105.957 78.5405 106.161 77.7105 106.124 76.8683C106.094 76.1924 105.915 75.5334 105.85 74.8587C105.742 73.7532 105.944 72.644 106.146 71.5518C106.3 70.7157 106.455 69.8784 106.653 69.0508C106.773 68.5472 106.913 68.0375 107.189 67.5945C107.407 67.2463 107.704 66.9562 107.953 66.6237C108.645 65.7111 108.952 64.5611 108.808 63.4224C108.794 63.3108 107.202 63.829 107.064 63.8897C106.493 64.1341 105.967 64.4747 105.51 64.8969C105.148 65.2488 104.853 65.7209 104.529 66.1165C104.074 66.6747 103.624 67.2374 103.18 67.8045C102.676 68.4557 102.18 69.1098 101.69 69.7668Z" fill="#464353"/>
<path opacity="0.05" d="M101.69 69.7267C101.228 70.3469 100.749 71.0616 100.863 71.831C100.925 72.2436 101.155 72.6089 101.324 72.9911C101.535 73.5171 101.691 74.0637 101.79 74.6221C101.964 75.434 102.137 76.2482 102.244 77.0722C102.364 78.003 101.797 80.697 101.744 81.6351C101.731 81.8596 101.706 82.1059 101.549 82.2673C101.488 82.3316 101.406 82.3887 101.379 82.4675C101.361 82.5502 101.374 82.6367 101.415 82.7102C101.677 83.3025 102.211 83.7442 102.804 83.9954C103.397 84.2466 104.84 84.4808 105.484 84.5014C105.57 84.5118 105.656 84.5001 105.736 84.4674C105.823 84.4151 105.891 84.3366 105.932 84.2429C106.397 83.3486 105.95 80.3669 105.957 79.3573C105.957 78.5078 106.161 77.6765 106.124 76.8344C106.094 76.1584 105.915 75.4995 105.85 74.8248C105.742 73.7192 105.944 72.6101 106.146 71.5191C106.3 70.6818 106.455 69.8445 106.653 69.0168C106.773 68.5132 106.913 68.0035 107.189 67.5606C107.407 67.2135 107.704 66.9223 107.953 66.5971C108.644 65.684 108.951 64.5344 108.808 63.3958C108.794 63.2829 107.202 63.8011 107.064 63.863C106.492 64.1076 105.966 64.4491 105.51 64.8726C105.148 65.2258 104.853 65.6966 104.529 66.0862C104.074 66.6444 103.624 67.2075 103.18 67.7754C102.676 68.4226 102.18 69.0731 101.69 69.7267Z" fill="black"/>
<path d="M96.5434 56.1134C97.977 56.1134 99.1391 54.9436 99.1391 53.5007C99.1391 52.0577 97.977 50.8879 96.5434 50.8879C95.1099 50.8879 93.9477 52.0577 93.9477 53.5007C93.9477 54.9436 95.1099 56.1134 96.5434 56.1134Z" fill="#FBBEBE"/>
<path d="M98.8799 53.3914C99.1196 53.7767 99.4339 54.1096 99.804 54.3702C100.174 54.6308 100.593 54.8138 101.034 54.9083L100.839 55.6207C100.501 56.85 100.116 58.1497 99.1789 59.0015C99.2814 58.5853 99.1488 58.1375 98.9149 57.7795C98.6647 57.4313 98.3682 57.1193 98.0336 56.8524L96.5398 55.5442C96.4953 55.5111 96.4572 55.47 96.4277 55.4229C96.3915 55.3309 96.3915 55.2285 96.4277 55.1365C96.6182 54.5406 97.1619 54.1656 97.602 53.7652C97.8233 53.5565 98.0214 53.3242 98.1927 53.0723C98.4989 52.6439 98.6834 53.0723 98.8799 53.3914Z" fill="#FBBEBE"/>
<path d="M93.1231 50.8746L93.0652 50.3892C93.4751 50.496 93.8633 50.1465 94.1249 49.7825C94.3866 49.4184 94.6301 48.9912 95.0292 48.8408C95.5114 48.6563 96.0274 48.9512 96.4904 49.1939C97.0094 49.4846 97.5792 49.6721 98.1686 49.746C98.2626 49.7493 98.3558 49.7648 98.4459 49.7922C98.7473 49.9002 98.8908 50.2776 98.9342 50.6259C98.9776 50.9741 98.9655 51.3382 99.115 51.6464C99.2271 51.8794 99.4212 52.053 99.5394 52.2823C99.8564 52.9012 99.5502 53.7458 99.8854 54.3526L99.0535 53.5844C98.9764 53.514 98.869 53.4412 98.7859 53.5007C98.7027 53.5602 98.7147 53.65 98.687 53.7313C98.6062 53.974 98.3108 54.0419 98.095 53.9485C97.8792 53.855 97.7237 53.6487 97.5658 53.4631C97.1981 53.0262 96.7604 52.6427 96.2396 52.4558C96.0142 52.3689 95.7729 52.3313 95.532 52.3458C95.291 52.3602 95.0558 52.4263 94.8423 52.5396C94.4541 52.7604 94.1696 53.275 93.6945 53.2932C93.0423 53.3175 92.771 52.0954 92.4684 51.6124C92.5786 51.5285 92.6561 51.4084 92.6874 51.2729C92.7186 51.1374 92.7017 50.9952 92.6396 50.871C92.6927 50.8504 93.1146 50.7957 93.1231 50.8746Z" fill="#464353"/>
<path d="M103.942 84.6058C103.429 85.0663 102.763 85.3161 102.076 85.306C101.901 85.306 101.659 85.34 101.658 85.516C101.661 85.5683 101.678 85.6187 101.708 85.6616C101.926 86.0256 102.269 86.2961 102.673 86.4213C103.047 86.5353 103.447 86.5159 103.837 86.4965L104.977 86.437C105.191 86.4249 105.407 86.414 105.622 86.3873C105.836 86.3606 106.068 86.3157 106.292 86.2829C106.841 86.2039 107.397 86.1775 107.951 86.204C108.098 86.2101 108.268 86.204 108.36 86.0924C108.451 85.9807 108.402 85.7793 108.368 85.6179C108.301 85.2854 108.368 84.9371 108.305 84.6034C108.196 84.0173 107.695 83.5695 107.143 83.3571C106.631 83.1605 105.722 82.936 105.236 83.2624C104.715 83.6144 104.402 84.1872 103.942 84.6058Z" fill="#3F3D56"/>
<path d="M105.071 64.994C105.172 65.4794 105.634 65.8435 105.648 66.3289C105.659 66.7221 105.379 67.057 105.179 67.3907C104.988 67.7404 104.827 68.1057 104.697 68.4829C104.317 69.4619 103.845 70.4025 103.289 71.2922C103.021 71.7182 102.722 72.1817 102.784 72.6829C102.826 72.9168 102.907 73.1417 103.025 73.3479L103.827 74.951C104.003 75.2712 104.14 75.6114 104.236 75.9643C104.305 76.2689 104.312 76.5844 104.357 76.8951C104.484 77.878 104.942 78.8683 104.672 79.8209C104.648 79.9034 104.563 80.0029 104.499 79.9422C104.763 80.4398 104.982 80.9422 104.956 81.5065C104.945 81.8026 104.855 82.1132 104.965 82.3875C105.027 82.4942 105.068 82.6121 105.085 82.7345C105.085 82.8146 105.048 82.8911 105.039 82.9772C105.018 83.2042 105.224 83.3935 105.44 83.4627C105.655 83.5318 105.888 83.5294 106.105 83.5949C106.524 83.7163 106.82 84.0803 107.178 84.3328C107.541 84.5859 107.969 84.7264 108.41 84.7369C108.473 84.7436 108.536 84.7309 108.591 84.7005C108.623 84.6728 108.648 84.6387 108.666 84.6004C108.683 84.5621 108.692 84.5205 108.692 84.4784C108.712 84.2774 108.681 84.0748 108.605 83.8883C108.528 83.7019 108.406 83.5374 108.251 83.4093C108.184 83.366 108.128 83.3069 108.088 83.2369C108.068 83.1748 108.063 83.1087 108.073 83.044C108.138 82.1618 108.122 81.2754 108.026 80.3961C107.982 80.1176 107.968 79.8353 107.984 79.5539C108.008 79.3197 108.078 79.0867 108.051 78.8525C108.025 78.6183 107.908 78.4071 107.838 78.1814C107.717 77.7809 107.748 77.3513 107.735 76.9315C107.713 76.2034 107.548 75.4898 107.383 74.7811C107.319 74.5032 107.247 74.2107 107.05 74.0044C106.884 73.8297 106.615 73.661 106.678 73.428C106.712 73.3418 106.764 73.2636 106.83 73.1987C106.907 73.1008 106.965 72.9881 106.998 72.8672C107.031 72.7464 107.039 72.6201 107.021 72.496C107.092 72.5149 107.167 72.5082 107.233 72.4772C107.299 72.4461 107.352 72.3927 107.383 72.3261C108.686 71.7085 109.74 70.4707 110.204 69.0969C110.23 68.9957 110.271 68.8988 110.325 68.8093C110.445 68.6394 110.655 68.5666 110.841 68.472C111.424 68.1771 111.828 67.6225 112.198 67.0801C112.414 66.7646 112.629 66.4393 112.722 66.0692C112.772 65.8299 112.797 65.5857 112.794 65.3411L112.826 64.0766C112.833 63.9949 112.825 63.9127 112.802 63.8339C112.772 63.7584 112.726 63.6902 112.667 63.6337C112.314 63.2547 111.849 62.9996 111.341 62.9055C110.999 62.8436 110.649 62.8558 110.303 62.8267C109.632 62.7708 108.969 62.5621 108.297 62.6107C107.241 62.6883 106.302 63.4249 105.804 64.3654C105.629 64.7016 105.446 64.994 105.071 64.994Z" fill="#464353"/>
<path d="M99.2114 56.7711C99.2267 56.9661 99.2008 57.1621 99.1355 57.3463C99.0535 57.5235 98.8461 57.6606 98.6665 57.589C98.7208 57.4677 98.5761 57.3233 98.4423 57.3391C98.3761 57.3539 98.3145 57.3847 98.2628 57.4289C98.2111 57.4731 98.1709 57.5293 98.1457 57.5927C98.0558 57.773 98.0258 57.9776 98.0601 58.1764C98.1023 58.4191 98.2445 58.6618 98.2072 58.9045C98.177 59.1108 98.0263 59.3171 98.1071 59.5113C98.159 59.5985 98.2241 59.6771 98.3 59.7443C98.406 59.8751 98.4579 60.0419 98.4451 60.2101C98.4323 60.3784 98.3558 60.5353 98.2313 60.6483L100.254 60.6884C100.181 61.0294 100.331 61.3777 100.505 61.6798C100.991 62.5104 101.661 63.2164 102.463 63.7428C103.265 64.2691 104.178 64.6014 105.129 64.7137C105.077 64.7442 105.033 64.7857 105 64.8354C104.966 64.885 104.944 64.9415 104.935 65.0008C104.926 65.0601 104.93 65.1207 104.947 65.1782C104.963 65.2358 104.993 65.2889 105.032 65.3338C105.196 65.4976 105.475 65.477 105.681 65.3702C105.887 65.2634 106.05 65.0874 106.238 64.9515C106.57 64.7136 106.975 64.6033 107.381 64.6408C107.634 64.6651 107.88 64.7476 108.134 64.7622C108.884 64.8022 109.528 64.2598 110.245 64.0341C110.771 63.8715 111.365 63.8715 111.813 63.5414C112.003 63.3994 112.159 63.1664 112.103 62.9346C112.056 62.8016 111.982 62.68 111.885 62.5779C111.631 62.2478 111.481 61.8497 111.3 61.4748C110.939 60.7315 110.443 60.063 109.838 59.504C109.382 59.1015 108.898 58.7313 108.391 58.396C108.268 58.3034 108.136 58.2221 107.998 58.1533C107.814 58.093 107.634 58.0196 107.46 57.9337C107.219 57.7832 107.085 57.5175 106.903 57.3027C106.502 56.8318 105.886 56.6146 105.391 56.2445C105.06 56.0018 104.768 55.6693 104.371 55.5491C104.18 55.4909 103.975 55.486 103.782 55.4278C103.345 55.2943 103.027 54.9035 102.598 54.7458C102.258 54.6244 101.884 54.6535 101.525 54.6086C101.13 54.5593 100.752 54.4149 100.424 54.1875C100.315 54.0992 100.193 54.0288 100.063 53.9788C99.5213 53.8126 99.4767 54.8283 99.426 55.1814C99.3453 55.7214 99.2114 56.2408 99.2114 56.7711Z" fill="#F6B17A"/>
<path d="M99.7395 60.1811C99.8299 61.1726 99.0861 62.1337 99.3031 63.1057C99.3489 63.3132 99.4381 63.5098 99.4707 63.7125C99.5611 64.2889 99.2187 64.835 98.8919 65.3168L96.0913 69.4549C95.979 69.6369 95.8445 69.804 95.691 69.9524C95.1545 70.4378 94.3516 70.382 93.6487 70.5252C93.1546 70.6263 92.688 70.8333 92.2803 71.132C92.2626 71.1461 92.2509 71.1665 92.2475 71.1891C92.2441 71.2116 92.2494 71.2346 92.2623 71.2533C92.3779 71.4136 92.5317 71.542 92.7095 71.6268C92.8873 71.7116 93.0834 71.7501 93.2798 71.7387C93.3533 71.837 93.2798 71.9814 93.1785 72.0494C93.0278 72.155 92.8168 72.1829 92.7915 72.4402C92.7809 72.5295 92.7986 72.62 92.8422 72.6986C92.9559 72.872 93.1316 72.9946 93.3329 73.0409C94.2973 73.3394 95.3498 72.8151 96.0756 72.1016C96.8014 71.388 97.3222 70.4876 98.036 69.7607C98.4302 69.359 98.8799 69.0144 99.2838 68.6248C100.095 67.8482 100.724 66.9028 101.333 65.9551C101.532 65.6801 101.682 65.3726 101.777 65.0461C101.852 64.7234 101.818 64.3824 101.905 64.062C102.018 63.6433 102.323 63.3084 102.576 62.9577C103.074 62.2684 103.406 61.4262 103.339 60.5767C103.273 59.7273 102.752 58.8912 101.957 58.6023C101.71 58.5029 101.438 58.4863 101.181 58.555C100.856 58.6557 100.615 58.9276 100.392 59.1873L99.8601 59.8049C99.7275 59.9414 99.6227 60.1026 99.5514 60.2794C99.517 60.3682 99.5089 60.4651 99.5281 60.5584C99.5474 60.6517 99.5932 60.7373 99.6599 60.8049" fill="#FBBEBE"/>
<path d="M101.157 56.1074C100.788 56.1292 100.383 56.1656 100.123 56.4302C100.014 56.5517 99.9265 56.6902 99.8625 56.8403C99.6105 57.3585 99.3646 57.8998 99.3465 58.4762C99.3308 58.9373 99.467 59.3875 99.5333 59.8438C99.5912 60.2224 99.4441 60.6083 99.4128 60.9918C99.8697 60.851 100.473 60.6593 100.887 60.4215C101.159 60.2425 101.448 60.0913 101.749 59.97C102.189 59.8232 102.928 60.0756 103.343 60.2831C103.366 59.987 103.147 59.4737 103.169 59.1776C103.173 59.0537 103.195 58.931 103.235 58.8135C103.297 58.6892 103.371 58.5709 103.455 58.4604C103.615 58.1999 103.689 57.8951 103.666 57.5898C103.642 57.2845 103.524 56.9945 103.326 56.7615C102.956 56.3416 102.375 56.1838 101.822 56.1195C101.473 56.0785 101.121 56.0659 100.77 56.0819" fill="#F6B17A"/>
<path d="M46.5368 47.6175L44.1593 44.1468C44.1593 44.1468 44.1147 43.2877 43.9592 43.0874C43.8037 42.8872 43.9255 42.4406 43.9255 42.4406C43.9255 42.4406 44.093 42.1979 43.9484 42.1724C43.8037 42.147 43.9255 41.6033 43.9255 41.6033L43.9146 40.7332C43.9146 40.7332 44.0484 39.8959 43.9375 39.6956C43.9048 39.6413 43.8883 39.5786 43.8903 39.515C43.8922 39.4515 43.9124 39.3899 43.9484 39.3376C43.9484 39.3376 44.081 38.8583 43.9484 38.7309C43.8157 38.6035 43.8483 37.8608 43.8808 37.2686C43.9134 36.6764 43.6482 36.3427 43.6482 36.2541C43.6482 36.1655 42.7705 35.2942 42.7705 35.2153C42.7705 35.1364 42.2147 34.8136 41.8807 34.7299C41.5468 34.6462 41.3816 34.5733 41.3925 34.5284C41.4033 34.4835 40.8704 34.3064 40.8704 34.3064C40.8704 34.3064 40.4038 34.2724 40.2254 34.0382C40.047 33.804 39.502 33.736 39.4888 33.7336L39.4779 33.6875C39.4779 33.6705 39.4719 33.6535 39.4683 33.6365C39.5123 33.5659 39.5525 33.493 39.5889 33.4181L39.6202 33.3501C39.8155 33.3514 40.0063 33.2916 40.1663 33.179C40.2452 33.1132 40.3095 33.0317 40.3554 32.9396C40.4013 32.8475 40.4276 32.7468 40.4328 32.6438C40.4423 32.4375 40.3974 32.2324 40.3026 32.0492C40.2049 31.849 40.0615 31.6403 40.1121 31.4218C40.1338 31.3284 40.1892 31.2459 40.2182 31.1536C40.2614 30.9736 40.2328 30.7837 40.1386 30.6245C40.0542 30.4631 39.9373 30.3199 39.8432 30.1634C39.724 29.963 39.6442 29.7413 39.6081 29.5105C39.6014 29.3877 39.5724 29.2672 39.5225 29.155C39.4721 29.0758 39.4055 29.0084 39.3272 28.9571C38.9793 28.7073 38.5596 28.5794 38.1325 28.5931C37.8299 28.6028 37.5297 28.6853 37.2283 28.6477C37.0487 28.6166 36.872 28.5703 36.7002 28.5094C36.3277 28.3977 35.8973 28.3528 35.5729 28.5676C35.2486 28.7824 35.1196 29.2047 34.899 29.5384C34.7049 29.8297 34.4168 30.0748 34.2721 30.3879C34.2721 30.3879 34.2721 30.3758 34.2721 30.3709C34.2357 30.4422 34.2077 30.5175 34.1889 30.5954C34.1475 30.8426 34.1644 31.0962 34.2383 31.3357C34.2546 31.4646 34.3188 31.5825 34.418 31.6657C34.5277 31.7373 34.6784 31.7203 34.8062 31.7434L34.7917 31.8065C34.6616 32.4338 34.7705 33.0874 35.0967 33.6377C35.423 34.188 35.9428 34.5947 36.5531 34.7772C36.5531 34.8003 36.5531 34.8221 36.5531 34.8452C36.5528 34.9093 36.5488 34.9733 36.541 35.0369C36.541 35.0369 35.4234 34.8051 35.1232 34.9617C34.823 35.1182 34.2347 35.2408 34.1455 35.3257C34.0563 35.4107 33.8344 35.3488 33.6343 35.873C33.4342 36.3973 33.4125 36.9324 33.1521 37.1788C32.8916 37.4251 32.7639 37.5914 32.7518 37.7698C32.7397 37.9482 32.7856 37.9931 32.6855 38.0489C32.5854 38.1047 32.4444 38.3389 32.4854 38.4287C32.5007 38.4901 32.4974 38.5547 32.4759 38.6142C32.4544 38.6737 32.4157 38.7253 32.3648 38.7624C32.3121 38.7997 32.27 38.8503 32.2427 38.909C32.2154 38.9678 32.2039 39.0327 32.2093 39.0974C32.2093 39.0974 32.1418 39.3401 31.9862 39.3995C31.8307 39.459 31.7306 39.8231 31.7306 39.8231L31.2267 40.4055L30.2284 39.294C30.1535 39.2109 30.0488 39.161 29.9375 39.1554C29.8261 39.1497 29.717 39.1886 29.6341 39.2636L29.1434 39.7078C28.9543 39.754 28.7834 39.8563 28.6527 40.0014C28.5464 40.1125 28.4603 40.2414 28.3983 40.3825L28.1307 40.6252C28.0461 40.7306 27.9944 40.8589 27.9819 40.9938C27.9695 41.1287 27.9969 41.2643 28.0607 41.3836L28.7009 42.096V42.1021C28.4741 42.1221 28.2586 42.2105 28.0824 42.3557C27.1276 43.2051 27.1179 43.9854 27.2602 44.3422C27.4025 44.699 28.6153 46.0715 28.6153 46.0715C28.6153 46.0715 29.3194 46.9926 30.3357 47.4816L30.3285 47.4901C30.3076 47.5121 30.2879 47.5352 30.2694 47.5593L30.2526 47.5811L30.2369 47.603L30.2188 47.6297C30.2139 47.6367 30.2095 47.644 30.2055 47.6515L30.1862 47.6831C30.1818 47.6901 30.1777 47.6974 30.1742 47.7049C30.1657 47.7195 30.1585 47.734 30.1513 47.7486C30.1486 47.7533 30.1462 47.7582 30.144 47.7632C30.1344 47.7826 30.1248 47.802 30.1163 47.8238L30.1067 47.8457C30.1006 47.8602 30.0958 47.8748 30.0898 47.8906C30.086 47.9001 30.0828 47.9098 30.0801 47.9197L30.0657 47.9634C30.0618 47.9737 30.0585 47.9842 30.056 47.9949C30.056 48.0107 30.0464 48.0265 30.0428 48.0435C30.0392 48.0605 30.0367 48.0629 30.0343 48.0738C30.0319 48.0847 30.0223 48.126 30.0175 48.1539C30.0175 48.1636 30.0175 48.1745 30.0114 48.1855C30.0054 48.1964 30.0054 48.2231 30.0018 48.2425C29.9982 48.2619 30.0018 48.2692 30.0018 48.2838L29.9946 48.3384V48.382C29.9946 48.4027 29.9945 48.4233 29.9885 48.4452C29.9825 48.467 29.9885 48.4706 29.9885 48.484C29.9885 48.5192 29.9885 48.5544 29.9885 48.592C29.9668 49.8977 30.0428 50.0871 30.0428 50.0871C30.0924 50.2077 30.1732 50.3126 30.277 50.391C30.3807 50.4693 30.5034 50.5182 30.6323 50.5324C30.6956 50.5374 30.7592 50.5341 30.8216 50.5227C31.4003 50.422 32.7506 50.1878 33.2328 50.28C33.521 50.3334 34.0527 50.2533 34.4312 50.1817L34.5313 50.1623L34.6 50.3844L34.8194 50.3237L35.0063 50.4317L35.1269 50.5009C35.3463 51.2484 36.236 50.9936 36.236 50.9936L36.447 51.1149L38.5918 51.1707C38.8326 51.3168 39.087 51.4387 39.3513 51.5348C39.3863 51.5463 39.4222 51.5544 39.4586 51.5591C39.6592 51.5755 39.8605 51.5791 40.0615 51.57C40.2254 51.57 40.352 51.5591 40.352 51.5591C40.352 51.5591 40.3303 50.9729 40.299 50.3164C40.9638 50.2998 41.6272 50.2452 42.2858 50.1526C43.4312 49.9511 43.9086 48.9026 44.0846 48.342C44.1373 48.571 44.1747 48.8033 44.1967 49.0374C44.2435 49.2432 44.3031 49.4458 44.3752 49.6441C44.4366 49.8026 44.5176 49.9526 44.6163 50.0907C45.4602 49.8007 44.949 49.3626 44.7718 49.1757C44.5946 48.9888 44.8924 48.8298 44.8924 48.8298C44.8924 48.8298 45.1263 48.6733 45.1033 48.5289C45.0804 48.3845 45.0696 48.2279 45.8267 48.2388C46.5838 48.2498 46.5368 47.6175 46.5368 47.6175ZM34.8038 40.4929C34.8134 40.556 34.9243 41.2441 35.0135 41.4249C35.0402 41.5443 35.0487 41.667 35.0389 41.789C34.5916 41.7526 34.125 41.7331 34.125 41.7331C34.1381 41.7495 34.1465 41.7693 34.1491 41.7902L34.078 41.7744L33.9767 41.7501L34.8013 40.4868L34.8038 40.4929ZM33.1689 43.1093L33.9442 43.2306L34.0093 43.2403C33.9873 43.3606 33.974 43.4822 33.9695 43.6044C33.9695 43.6165 33.9863 43.6299 34.0117 43.6457C34.0009 43.7069 33.996 43.7691 33.9972 43.8313C34.0093 43.892 34.3709 44.0255 34.7869 44.1359C34.7809 44.159 34.776 44.1808 34.77 44.2002C34.4023 44.0061 33.8248 43.9151 33.7585 43.7706C33.6922 43.6262 31.7246 42.9345 31.7246 42.9345L31.5293 42.8362L32.0465 42.9345L32.1888 42.92C32.5111 43.0044 32.8385 43.0676 33.1689 43.1093Z" fill="url(#paint0_linear_58_116)"/>
<path d="M44.0074 48.103C44.0074 48.103 43.7 49.9767 42.1363 50.2533C40.5726 50.53 35.3523 50.4754 35.3523 50.4754C35.3523 50.4754 32.3672 50.0422 31.2882 47.5047C30.2091 44.9672 29.5147 43.9564 30.4442 43.9127C31.3738 43.869 36.359 45.6116 36.6447 45.631C36.9305 45.6504 44.2835 41.7732 44.0074 48.103Z" fill="#65617D"/>
<path opacity="0.05" d="M44.0074 48.103C44.0074 48.103 43.7 49.9767 42.1363 50.2533C40.5726 50.53 35.3523 50.4754 35.3523 50.4754C35.3523 50.4754 32.3672 50.0422 31.2882 47.5047C30.2091 44.9672 29.5147 43.9564 30.4442 43.9127C31.3738 43.869 36.359 45.6116 36.6447 45.631C36.9305 45.6504 44.2835 41.7732 44.0074 48.103Z" fill="black"/>
<path d="M30.009 50.189C30.0575 50.309 30.1373 50.4135 30.2401 50.4915C30.3428 50.5695 30.4646 50.618 30.5925 50.6319C30.6558 50.6359 30.7194 50.6322 30.7818 50.621C31.3545 50.5215 32.6975 50.2885 33.1714 50.3783C33.4559 50.4305 33.9827 50.3516 34.3577 50.2812C34.6072 50.2339 34.7905 50.189 34.7905 50.189C34.7905 50.189 34.3492 48.7146 34.295 48.6709C34.2407 48.6272 32.3118 47.4574 32.3118 47.4574L30.7854 47.3469C30.58 47.3778 30.3942 47.4874 30.267 47.6527C30.1067 47.8493 29.968 48.1709 29.9584 48.6988C29.9331 49.9985 30.009 50.189 30.009 50.189Z" fill="#3F3D56"/>
<path opacity="0.05" d="M30.009 50.189C30.0575 50.309 30.1373 50.4136 30.2401 50.4916C30.3428 50.5695 30.4646 50.6181 30.5925 50.632C30.443 50.4377 30.3046 50.2352 30.1778 50.0252L30.1862 48.95C30.1559 48.6551 30.1946 48.3572 30.2993 48.0801C30.404 47.8029 30.5717 47.5544 30.789 47.3542C30.789 47.3542 29.9849 47.4089 29.962 48.7061C29.9391 50.0034 30.009 50.189 30.009 50.189Z" fill="black"/>
<path opacity="0.1" d="M36.6291 47.8371L38.0505 46.7171L40.2857 44.5L39.6829 44.472C39.5925 44.5303 39.3393 44.7147 39.3296 44.9356C39.3188 45.2062 38.7268 44.955 38.417 45.1091C38.1071 45.2633 36.6001 47.2085 36.3361 47.1952C36.0721 47.1818 35.8623 47.0605 35.7514 47.2498L35.7441 47.2619L36.6291 47.8371Z" fill="black"/>
<path opacity="0.1" d="M30.2634 47.6551C30.314 47.6794 30.3659 47.7037 30.4177 47.7255C31.4967 48.1915 32.829 49.1672 32.929 49.3444C32.9893 49.4524 33.7621 49.9244 34.3577 50.2788C34.6072 50.2315 34.7905 50.1866 34.7905 50.1866C34.7905 50.1866 34.3492 48.7121 34.295 48.6684C34.2407 48.6248 32.3117 47.4549 32.3117 47.4549L30.7854 47.3445C30.5779 47.3757 30.3906 47.4872 30.2634 47.6551Z" fill="black"/>
<path d="M27.2687 44.4782C27.4109 44.8325 28.6117 46.1965 28.6117 46.1965C28.6117 46.1965 29.3713 47.1941 30.4515 47.6528C31.5317 48.1115 32.8627 49.0944 32.9616 49.2716C33.0255 49.3857 33.8863 49.9075 34.4915 50.2655L34.6277 50.3456L34.9279 50.5215L35.0871 50.6126C35.0871 50.6126 35.456 50.3152 35.8237 50.0155C36.1914 49.7158 36.5471 49.4221 36.5471 49.4087C36.5471 49.3954 36.7014 48.9986 36.6676 48.9767C36.6339 48.9549 36.5748 48.8117 36.435 48.6333C36.2874 48.4355 36.0952 48.2758 35.8744 48.1673C35.5548 48.002 35.3 47.7331 35.151 47.404C35.151 47.404 35.1028 47.3688 35.0304 47.3215C34.8805 47.2177 34.713 47.1425 34.5361 47.0994C34.295 47.0691 33.8417 46.5703 33.8417 46.5703C33.6654 46.4548 33.5184 46.2994 33.4125 46.1164C33.2919 45.8737 31.5884 44.6918 31.4304 44.5825L35.5705 47.2596L36.5616 47.9003L37.983 46.7815L40.2182 44.5643L39.4804 44.5304C38.3953 44.483 36.4663 44.409 36.2252 44.4648C36.0277 44.5106 35.8241 44.5241 35.6224 44.5049C35.6224 44.5049 35.0726 44.5292 34.7085 44.3362C34.3444 44.1433 33.7718 44.0522 33.7054 43.909C33.6391 43.7658 31.6909 43.079 31.6909 43.079C31.6909 43.079 29.0385 41.6604 28.0897 42.5026C27.1409 43.3448 27.1252 44.1214 27.2687 44.4782Z" fill="#65617D"/>
<path d="M35.8249 36.3414L36.1661 37.4833L36.6074 40.0548L38.2265 40.1652L38.6895 39.3886L39.1572 38.6071C39.1572 38.6071 39.449 37.5683 39.6588 36.5635C39.8432 35.674 39.965 34.8099 39.7637 34.7165C39.584 34.634 39.4671 34.3342 39.3899 34.0114C39.3803 33.9726 39.3718 33.9314 39.3646 33.8901C39.3106 33.6173 39.2744 33.3412 39.2561 33.0637C39.2561 33.0637 35.8647 32.8865 36.3385 34.2942C36.423 34.5347 36.4663 34.7879 36.4663 35.0429C36.4663 35.1085 36.4663 35.1728 36.4543 35.2335C36.4307 35.4518 36.3627 35.6629 36.2544 35.8535C36.1461 36.0442 35.9999 36.2103 35.8249 36.3414Z" fill="#EE8E9E"/>
<path d="M35.1208 36.1534L35.2414 38.095L35.5163 39.7466L35.8249 40.5123L36.101 44.6966C36.101 44.6966 38.7534 45.006 39.402 44.6905C39.4498 44.6721 39.4916 44.6406 39.5225 44.5995C40.3026 43.4139 40.047 39.9796 40.047 39.9796L40.3436 37.7625L40.1458 36.6121L39.6636 36.5611L39.2947 36.5211C39.2947 36.5211 39.2115 36.6242 39.0909 36.7844C38.7642 37.2176 38.1638 38.0719 38.2048 38.4275C38.2591 38.9129 38.1385 39.4141 37.9504 39.4918C37.7623 39.5694 37.6092 39.7029 37.5767 39.5694C37.5298 39.4575 37.518 39.3339 37.5429 39.2151C37.5767 39.0258 37.3995 38.4494 37.3995 38.4494C37.3995 38.4494 37.1029 37.7734 37.1246 37.4858C37.1463 37.1982 37.092 36.8645 37.004 36.7868C36.916 36.7092 36.7942 36.6315 36.8931 36.2771C36.992 35.9228 36.4591 35.2323 36.4591 35.2323L35.1208 36.1534Z" fill="#E3E8F4"/>
<path opacity="0.1" d="M38.628 40.9977L38.7389 44.3118L39.3742 44.6674C39.4219 44.6481 39.4636 44.6163 39.4948 44.5752C40.2748 43.3896 40.0193 39.9553 40.0193 39.9553L40.317 37.7382L40.1181 36.5878L39.6359 36.5368C39.8215 35.6473 39.9421 34.7845 39.7408 34.6898C39.5611 34.6073 39.4442 34.3075 39.3682 33.986L39.0246 36.3305C39.0246 36.3305 39.0536 36.5416 39.0632 36.7601C39.0775 36.8982 39.0681 37.0378 39.0355 37.1727C38.9909 37.3541 38.9835 37.5428 39.0138 37.7273C38.8148 38.0792 38.716 38.7321 38.6678 39.3619C38.6027 40.1992 38.628 40.9977 38.628 40.9977Z" fill="black"/>
<path d="M39.3779 33.9277C39.3779 33.9277 39.9337 33.9969 40.1097 34.2299C40.2857 34.4629 40.7486 34.4969 40.7486 34.4969C40.7486 34.4969 41.2767 34.6741 41.2659 34.7177C41.255 34.7614 41.4202 34.8294 41.7481 34.918C42.076 35.0066 42.6294 35.3281 42.6294 35.4034C42.6294 35.4786 43.4987 36.3451 43.4987 36.4337C43.4987 36.5223 43.7627 36.8548 43.7301 37.4421C43.6976 38.0294 43.6638 38.777 43.7964 38.8983C43.9291 39.0197 43.7964 39.4966 43.7964 39.4966C43.7608 39.5485 43.7408 39.6097 43.7389 39.6728C43.737 39.7358 43.7532 39.7981 43.7856 39.8522C43.8953 40.0512 43.7627 40.8824 43.7627 40.8824L43.7747 41.7477C43.7747 41.7477 43.6542 42.2901 43.7964 42.3132C43.9387 42.3363 43.7747 42.579 43.7747 42.579C43.7747 42.579 43.6542 43.0219 43.8073 43.2221C43.9604 43.4224 44.005 44.2743 44.005 44.2743L46.362 47.7219C46.362 47.7219 46.3958 48.3541 45.6471 48.3432C44.8984 48.3323 44.908 48.4876 44.9309 48.6308C44.9538 48.774 44.7212 48.9305 44.7212 48.9305C44.7212 48.9305 44.4246 49.0859 44.6006 49.274C44.7766 49.4621 45.283 49.8953 44.4463 50.1829C44.3477 50.0461 44.2667 49.8972 44.2052 49.74C44.1342 49.5444 44.0755 49.3446 44.0291 49.1417C44.0291 49.1417 43.952 48.2983 43.7977 48.1879C43.6433 48.0774 43.665 47.5447 43.665 47.5447C43.665 47.5447 43.8857 47.1127 43.577 46.9379C43.2684 46.7632 38.798 44.2682 38.798 44.2682L38.6895 40.9528C38.6895 40.9528 38.6123 38.5027 39.0753 37.6824C39.045 37.498 39.0524 37.3093 39.097 37.1278C39.1741 36.9288 39.0861 36.2856 39.0861 36.2856L39.3779 33.9277Z" fill="#3F3D56"/>
<path opacity="0.1" d="M36.4916 35.2626C36.4916 35.2626 35.3849 35.0333 35.0871 35.1886C34.7893 35.3439 34.207 35.4653 34.1226 35.5527C34.0382 35.64 33.8152 35.5757 33.6162 36.0963C33.4173 36.6169 33.3968 37.1497 33.1424 37.3936C32.888 37.6375 32.7578 37.8038 32.747 37.9809C32.7361 38.1581 32.7795 38.203 32.6807 38.2576C32.5818 38.3122 32.4395 38.5464 32.4817 38.635C32.5239 38.7236 34.7724 40.675 34.7724 40.675C34.7724 40.675 34.8833 41.4176 34.9822 41.6057C35.0811 41.7938 34.8725 44.3883 34.6519 44.5655C34.4312 44.7427 36.1336 44.7281 36.1336 44.7281C36.1336 44.7281 36.2107 43.0292 36.277 42.937C36.3433 42.8447 36.2324 41.0305 36.2324 41.0305C36.2324 41.0305 36.2216 39.4784 36.365 39.0683C36.5085 38.6581 36.4856 37.2941 36.4856 37.2941C36.4856 37.2941 36.6122 36.4762 36.7665 36.2856C36.9208 36.0951 36.4916 35.2626 36.4916 35.2626Z" fill="black"/>
<path d="M36.4591 35.2298C36.4591 35.2298 35.3523 35.0005 35.0545 35.1546C34.7567 35.3087 34.1732 35.4325 34.09 35.5186C34.0068 35.6048 33.7814 35.5405 33.5837 36.0623C33.386 36.5841 33.363 37.1144 33.1099 37.3583C32.8567 37.6023 32.7241 37.7685 32.7132 37.9457C32.7024 38.1229 32.747 38.1678 32.6469 38.2236C32.5468 38.2794 32.4058 38.5112 32.4492 38.5998C32.4926 38.6884 34.7399 40.6397 34.7399 40.6397C34.7399 40.6397 34.8496 41.3824 34.9496 41.5705C35.0497 41.7586 34.8387 44.3531 34.6181 44.5303C34.3975 44.7075 36.1058 44.6917 36.1058 44.6917C36.1058 44.6917 36.183 42.9927 36.2481 42.9017C36.3132 42.8107 36.2047 40.9941 36.2047 40.9941C36.2047 40.9941 36.1938 39.4432 36.3373 39.033C36.4808 38.6228 36.4639 37.2588 36.4639 37.2588C36.4639 37.2588 36.5905 36.4409 36.7448 36.2504C36.8991 36.0599 36.4591 35.2298 36.4591 35.2298Z" fill="#3F3D56"/>
<path opacity="0.1" d="M36.3433 34.2918C36.4279 34.5322 36.4711 34.7854 36.4711 35.0405C37.0121 35.2 37.5905 35.1732 38.1146 34.9644C38.6387 34.7555 39.0786 34.3766 39.3646 33.8877C39.3106 33.6149 39.2744 33.3388 39.2561 33.0612C39.2561 33.0612 35.8695 32.8829 36.3433 34.2918Z" fill="black"/>
<path d="M34.6687 32.5394C34.6683 33.1901 34.9159 33.816 35.3606 34.2883C35.8052 34.7605 36.4129 35.043 37.0584 35.0775C37.7039 35.1119 38.3379 34.8958 38.8296 34.4736C39.3214 34.0513 39.6335 33.4553 39.7015 32.8082C39.7694 32.1612 39.5881 31.5126 39.195 30.9962C38.8018 30.4798 38.2267 30.1349 37.5884 30.0327C36.95 29.9306 36.297 30.0789 35.7641 30.4471C35.2312 30.8152 34.859 31.3752 34.7242 32.0116C34.6872 32.1851 34.6687 32.362 34.6687 32.5394Z" fill="#EE8E9E"/>
<path d="M33.0496 38.4177L32.4468 38.6058C32.4622 38.667 32.4589 38.7315 32.4374 38.7908C32.4159 38.8501 32.3772 38.9015 32.3262 38.9383C32.2738 38.9752 32.232 39.0254 32.2051 39.0838C32.1782 39.1422 32.1671 39.2067 32.1731 39.2708C32.1731 39.2708 32.1068 39.5135 31.9525 39.5706C31.7982 39.6276 31.6993 39.9917 31.6993 39.9917L31.1929 40.579C31.1929 40.579 31.0049 40.7343 31.0386 40.812C31.0724 40.8897 30.8397 40.9115 30.8397 40.9115L30.9603 42.8847L32.0067 43.0849L32.6566 43.0182L33.1846 42.8192L33.6476 42.5413L33.8561 41.9988L34.7821 40.579L33.0496 38.4177Z" fill="#3F3D56"/>
<path d="M30.9904 41.0633C30.9904 41.0633 29.6473 39.1132 28.6443 40.1653C27.6412 41.2174 29.0518 42.9261 29.3821 42.8702C29.7124 42.8144 31.2882 42.7258 31.2882 42.7258L30.9904 41.0633Z" fill="#EE8E9E"/>
<path d="M34.1545 40.22L28.2216 37.172C28.1302 37.1251 28.0184 37.1616 27.9718 37.2535L25.6583 41.8159C25.6117 41.9078 25.6479 42.0204 25.7393 42.0673L31.6722 45.1153C31.7635 45.1622 31.8753 45.1258 31.9219 45.0338L34.2354 40.4715C34.282 40.3795 34.2458 40.267 34.1545 40.22Z" fill="#3F3D56"/>
<path d="M33.6026 40.491L28.3376 37.7861L26.3124 41.78L31.5774 44.4849L33.6026 40.491Z" fill="#F6B17A"/>
<path d="M27.1228 39.7745C27.176 39.7745 27.2192 39.731 27.2192 39.6774C27.2192 39.6238 27.176 39.5803 27.1228 39.5803C27.0695 39.5803 27.0263 39.6238 27.0263 39.6774C27.0263 39.731 27.0695 39.7745 27.1228 39.7745Z" fill="#E6E8EC"/>
<path d="M32.8217 42.778C32.9103 42.778 32.9821 42.7057 32.9821 42.6166C32.9821 42.5275 32.9103 42.4552 32.8217 42.4552C32.7332 42.4552 32.6614 42.5275 32.6614 42.6166C32.6614 42.7057 32.7332 42.778 32.8217 42.778Z" fill="#E6E8EC"/>
<path d="M30.1211 41.4735C30.1091 42.937 33.1159 43.2477 33.1159 43.2477L33.8839 43.369L34.2287 43.4236L34.3722 41.9941C34.3722 41.9941 34.2142 41.9698 34.0177 41.9237C33.7259 41.8558 33.3486 41.738 33.2702 41.5718C33.1436 41.2963 30.1296 40.01 30.1211 41.4735Z" fill="#EE8E9E"/>
<path opacity="0.1" d="M34.7242 32.0116C34.7933 32.0167 34.8585 32.0459 34.9086 32.0941C34.993 32.1851 34.9979 32.3465 35.1088 32.4023C35.1502 32.4199 35.1959 32.425 35.2402 32.4169C35.5332 32.3756 35.7019 32.0431 35.9841 31.9509C36.1481 31.9085 36.3215 31.9234 36.4759 31.9934C36.5387 32.0138 36.5952 32.0502 36.6399 32.0989C36.7339 32.2203 36.6676 32.4023 36.711 32.5504C36.7713 32.7567 37.0161 32.838 37.227 32.8647C37.438 32.8914 37.6767 32.9072 37.8178 33.0673C37.8645 33.1274 37.898 33.1967 37.9161 33.2708C37.9341 33.3449 37.9364 33.4219 37.9227 33.4969C37.91 33.5492 37.91 33.6037 37.9227 33.6559C37.9806 33.8222 38.2663 33.7967 38.341 33.6656C38.3965 33.5697 38.3796 33.4909 38.5086 33.4642C38.6008 33.4568 38.6933 33.4731 38.7775 33.5115C39.0019 33.589 39.2383 33.6256 39.4755 33.6195C39.6264 33.2956 39.7076 32.9432 39.7137 32.5855C39.7198 32.2278 39.6508 31.8728 39.5111 31.5439C39.3714 31.2149 39.1641 30.9194 38.903 30.6766C38.6419 30.4339 38.3328 30.2495 37.9959 30.1355C37.659 30.0214 37.3019 29.9804 36.9482 30.0149C36.5944 30.0495 36.2519 30.159 35.9431 30.3361C35.6343 30.5132 35.3662 30.7541 35.1563 31.0428C34.9465 31.3316 34.7996 31.6617 34.7254 32.0116H34.7242Z" fill="black"/>
<path d="M37.9215 33.5892C37.9089 33.5369 37.9089 33.4824 37.9215 33.4302C37.9353 33.3554 37.933 33.2785 37.9149 33.2046C37.8968 33.1307 37.8633 33.0616 37.8166 33.0018C37.6755 32.8404 37.438 32.8258 37.2258 32.7979C37.0136 32.77 36.7701 32.6899 36.7098 32.4836C36.6664 32.3356 36.7327 32.1548 36.6387 32.0334C36.5947 31.9838 36.538 31.9473 36.4747 31.9278C36.3204 31.8576 36.147 31.8422 35.9828 31.8841C35.7007 31.9764 35.5319 32.3089 35.239 32.3501C35.1947 32.3588 35.1489 32.3538 35.1076 32.3356C34.9967 32.2798 34.987 32.1184 34.9074 32.0273C34.7736 31.8854 34.5192 31.9776 34.3565 31.872C34.2578 31.7891 34.194 31.6716 34.178 31.5431C34.1051 31.3052 34.0886 31.0533 34.1298 30.8078C34.2251 30.3964 34.5916 30.1136 34.8242 29.7605C35.0425 29.4328 35.1654 29.0178 35.4922 28.8006C35.8189 28.5834 36.2396 28.6319 36.6098 28.7423C36.7799 28.8034 36.955 28.8497 37.133 28.8807C37.4308 28.9171 37.7298 28.8358 38.0288 28.8261C38.4526 28.8123 38.8689 28.9403 39.2127 29.1901C39.2902 29.241 39.356 29.3081 39.4056 29.3867C39.4553 29.4982 39.4847 29.6179 39.4924 29.7398C39.5276 29.969 39.6066 30.189 39.7251 30.3879C39.8167 30.5444 39.9337 30.6852 40.0168 30.8466C40.1098 31.0048 40.1384 31.1931 40.0964 31.372C40.0675 31.4631 40.012 31.5456 39.9903 31.639C39.9421 31.855 40.0832 32.0625 40.1796 32.2616C40.2735 32.4437 40.3179 32.6476 40.3086 32.8525C40.3035 32.9547 40.2773 33.0547 40.2319 33.1461C40.1865 33.2376 40.1227 33.3186 40.0446 33.3841C39.8808 33.4984 39.6856 33.5582 39.4864 33.5552C39.2447 33.5626 39.0038 33.526 38.7751 33.4472C38.6907 33.4093 38.5983 33.3931 38.5062 33.3998C38.3772 33.4265 38.3941 33.5054 38.3386 33.6013C38.2651 33.7299 37.9806 33.7554 37.9215 33.5892Z" fill="#3F3D56"/>
<path opacity="0.1" d="M36.5628 47.9027L37.9842 46.7838L40.2194 44.5667L39.4816 44.5327C39.3949 44.6116 39.3397 44.7194 39.326 44.8361C39.3152 45.1067 38.7232 44.8543 38.4134 45.0096C38.1035 45.165 36.5965 47.109 36.3325 47.0957C36.0685 47.0823 35.8587 46.961 35.7478 47.1491L35.7405 47.1612C35.6965 47.2122 35.6373 47.2476 35.5717 47.2619L36.5628 47.9027Z" fill="black"/>
<path d="M33.6994 47.8251L34.4131 50.1198L34.5253 50.4839L34.8652 50.3905L35.6151 50.1829L38.9523 49.2607C39.3726 49.2423 39.784 49.1322 40.1579 48.9379C40.7888 48.5821 41.5108 48.4236 42.2316 48.4828C42.6728 48.5241 43.1635 48.3323 43.571 47.5751C43.571 47.5751 44.4957 44.8264 42.1616 44.0389C39.8276 43.2513 39.7154 44.4575 39.7154 44.4575L39.6829 44.477C39.5925 44.5352 39.3393 44.7197 39.3296 44.9405C39.3188 45.2111 38.7268 44.9599 38.417 45.1141C38.1071 45.2682 36.6001 47.2135 36.3361 47.2001C36.0721 47.1868 35.8623 47.0654 35.7514 47.2547L35.7441 47.2668C35.6621 47.3797 35.4174 47.4064 35.2547 47.41C35.204 47.4127 35.1533 47.4127 35.1027 47.41L35.081 47.4161L34.9123 47.4671L33.6994 47.8251Z" fill="#65617D"/>
<path opacity="0.1" d="M33.8839 43.3702L34.2287 43.4248L34.3722 41.9953C34.3722 41.9953 34.2142 41.971 34.0177 41.9249C34.0695 42.1252 33.9514 42.8957 33.8839 43.3702Z" fill="black"/>
<path opacity="0.1" d="M42.8898 36.6885C42.8898 36.6885 43.9134 36.3888 43.6602 39.3158C43.4845 41.1023 42.73 42.7811 41.513 44.0935C41.513 44.0935 39.3321 45.057 38.3519 44.9017C37.3717 44.7463 36.6568 44.7136 36.6568 44.7136C36.348 44.5566 36.01 44.4661 35.6646 44.4478C35.1148 44.426 33.9586 44.0837 33.9357 43.9709C33.9128 43.858 34.2226 42.2307 34.09 42.1093C34.09 42.1093 35.632 42.1724 35.7863 42.2841C35.9407 42.3957 36.1613 42.3169 36.3264 42.2841C36.4916 42.2513 36.998 41.8096 37.9998 42.1979C37.9998 42.1979 38.341 42.2307 38.4737 42.1421C38.5818 42.0914 38.7049 42.0836 38.8185 42.1203C38.9042 42.0916 38.9854 42.0507 39.0596 41.9989C39.0921 41.9552 39.3574 41.9989 39.3574 41.9989C39.3732 42.006 39.3903 42.0096 39.4076 42.0095C39.4249 42.0093 39.4419 42.0054 39.4576 41.9981C39.4732 41.9907 39.4872 41.98 39.4984 41.9668C39.5096 41.9535 39.5178 41.938 39.5225 41.9212C39.5574 41.8308 39.6099 41.7483 39.6769 41.6785C39.6769 41.6785 39.9734 39.9942 40.5353 39.3619C40.5801 39.3225 40.6146 39.2725 40.6356 39.2164C40.6566 39.1602 40.6636 39.0998 40.6558 39.0403C40.61 38.8607 41.5685 36.333 42.8898 36.6885Z" fill="black"/>
<path d="M42.8621 36.4628C42.8621 36.4628 43.8869 36.1643 43.6337 39.0901C43.4584 40.8767 42.7038 42.5556 41.4865 43.8678C41.4865 43.8678 39.3055 44.8325 38.3254 44.6772C37.3452 44.5218 36.6291 44.4854 36.6291 44.4854C36.3207 44.3284 35.9832 44.2379 35.638 44.2197C35.0871 44.1966 33.9309 43.8556 33.9092 43.7428C33.8875 43.6299 34.1949 42.0026 34.0635 41.88C34.0635 41.88 35.6055 41.9443 35.7598 42.056C35.9141 42.1676 36.1335 42.0875 36.2987 42.056C36.4639 42.0244 36.9702 41.5815 37.9733 41.9686C37.9733 41.9686 38.3145 42.0026 38.4459 41.914C38.5541 41.8637 38.6769 41.8555 38.7907 41.8909C38.8762 41.8616 38.9573 41.8208 39.0318 41.7696C39.0644 41.7247 39.3284 41.7696 39.3284 41.7696C39.3442 41.7767 39.3613 41.7803 39.3786 41.7801C39.3959 41.78 39.413 41.7761 39.4286 41.7687C39.4443 41.7614 39.4582 41.7507 39.4694 41.7374C39.4806 41.7242 39.4889 41.7087 39.4936 41.6919C39.5285 41.6015 39.5809 41.5189 39.6479 41.4492C39.6479 41.4492 39.9457 39.7648 40.5075 39.1326C40.5524 39.0931 40.5869 39.0431 40.6079 38.987C40.6289 38.9309 40.6359 38.8704 40.6281 38.811C40.5835 38.6362 41.5407 36.1121 42.8621 36.4628Z" fill="#3F3D56"/>
<path opacity="0.1" d="M34.9086 47.461L36.3626 49.2327L36.3723 49.223C36.3831 49.1891 36.5266 48.8129 36.4928 48.7898C36.4591 48.7668 36.2071 48.2134 35.7007 47.9804C35.4432 47.854 35.2269 47.6561 35.0774 47.41L34.9086 47.461Z" fill="black"/>
<path opacity="0.1" d="M34.9279 50.5276L35.0871 50.6186C35.0871 50.6186 35.456 50.3213 35.8237 50.0216C36.1914 49.7218 36.5471 49.4281 36.5471 49.4148C36.5471 49.4015 36.7014 49.0046 36.6677 48.9828C36.6339 48.9609 36.5748 48.8177 36.435 48.6394C35.4488 48.3615 36.0733 49.0507 36.1601 49.0823C36.1601 49.0823 34.9605 48.8044 34.8942 50.1211C34.8885 50.2575 34.8998 50.3941 34.9279 50.5276Z" fill="black"/>
<path d="M36.1444 51.0846L36.3542 51.206L38.4797 51.2606C38.718 51.4064 38.97 51.5284 39.232 51.6246C39.2667 51.635 39.3022 51.6428 39.3381 51.6477C39.5354 51.6639 39.7335 51.6675 39.9312 51.6586C40.094 51.6586 40.2194 51.6477 40.2194 51.6477C40.2194 51.6477 40.1193 48.95 40.0434 48.6661C40.0072 48.5301 39.8288 48.5593 39.6527 48.6272C39.5208 48.6816 39.3934 48.7465 39.2718 48.8214C39.2718 48.8214 38.37 48.91 38.2265 48.9876C38.083 49.0653 37.6755 48.9427 37.4224 48.9876C37.1692 49.0325 36.7171 48.6879 36.7171 48.6879C35.4837 48.2777 36.1782 49.0422 36.2662 49.0762C36.2662 49.0762 35.0606 48.7983 34.9991 50.115C34.9376 51.4317 36.1444 51.0846 36.1444 51.0846Z" fill="#3F3D56"/>
<path d="M39.2175 50.0433C39.2404 50.6016 39.6732 51.2945 39.9312 51.661C40.094 51.661 40.2194 51.6501 40.2194 51.6501C40.2194 51.6501 40.1193 48.9524 40.0434 48.6684C40.0072 48.5325 39.8288 48.5616 39.6527 48.6296C39.4393 49.0325 39.1982 49.5919 39.2175 50.0433Z" fill="#565387"/>
<path opacity="0.1" d="M39.2175 50.0433C39.2404 50.6016 39.6732 51.2945 39.9312 51.661C40.094 51.661 40.2194 51.6501 40.2194 51.6501C40.2194 51.6501 40.1193 48.9524 40.0434 48.6684C40.0072 48.5325 39.8288 48.5616 39.6527 48.6296C39.4393 49.0325 39.1982 49.5919 39.2175 50.0433Z" fill="black"/>
<path opacity="0.05" d="M38.8534 50.1174C39.0005 50.6562 38.9981 51.2605 39.232 51.627C39.2667 51.6374 39.3022 51.6451 39.3381 51.6501C39.5354 51.6663 39.7335 51.6699 39.9312 51.661C40.094 51.661 40.2194 51.6501 40.2194 51.6501C40.2194 51.6501 40.1193 48.9524 40.0434 48.6684C40.0072 48.5325 39.8288 48.5616 39.6527 48.6296C39.5208 48.6839 39.3934 48.7489 39.2718 48.8238C39.2718 48.8238 38.6665 49.4269 38.8534 50.1174Z" fill="black"/>
<path opacity="0.1" d="M31.5209 44.6481C31.5209 44.6481 32.577 44.9927 33.4715 46.2184L31.5209 44.6481Z" fill="black"/>
<g opacity="0.1">
<path d="M40.1 31.3453C40.1 31.3538 40.1 31.3611 40.094 31.3696C40.0838 31.4012 40.0713 31.4321 40.0566 31.4618C40.0682 31.422 40.0828 31.383 40.1 31.3453Z" fill="black"/>
<path d="M34.1274 30.8078C34.1453 30.7302 34.1728 30.6551 34.2094 30.5845C34.2094 30.6027 34.1973 30.6221 34.1925 30.6415C34.1523 30.8872 34.1692 31.1389 34.2419 31.3769C34.2579 31.505 34.3212 31.6224 34.4192 31.7058C34.5831 31.8113 34.8375 31.7191 34.9713 31.8611C35.0557 31.9521 35.0606 32.1135 35.1715 32.1693C35.2128 32.1875 35.2586 32.1926 35.3029 32.1839C35.5958 32.1426 35.7646 31.8101 36.0467 31.7179C36.2108 31.6754 36.3845 31.6908 36.5386 31.7616C36.6019 31.781 36.6586 31.8176 36.7026 31.8672C36.7966 31.9885 36.7303 32.1693 36.7737 32.3174C36.834 32.5237 37.0788 32.605 37.2897 32.6317C37.5007 32.6584 37.7394 32.6742 37.8805 32.8356C37.9272 32.8954 37.9607 32.9645 37.9788 33.0384C37.9969 33.1122 37.9992 33.1891 37.9854 33.2639C37.9728 33.3162 37.9728 33.3707 37.9854 33.4229C38.0432 33.5892 38.329 33.5637 38.4037 33.4326C38.4592 33.3367 38.4423 33.2579 38.5713 33.2312C38.6634 33.2244 38.7558 33.2407 38.8402 33.2785C39.0689 33.3573 39.3098 33.3939 39.5515 33.3865C39.7507 33.3896 39.9459 33.3297 40.1097 33.2154C40.1813 33.1588 40.2397 33.0872 40.2809 33.0055C40.2436 33.1541 40.1589 33.2862 40.0398 33.3816C39.876 33.496 39.6808 33.5558 39.4816 33.5528C39.2399 33.5602 38.9989 33.5236 38.7702 33.4447C38.6859 33.4069 38.5935 33.3907 38.5014 33.3974C38.3724 33.4241 38.3893 33.503 38.335 33.5989C38.2591 33.7299 37.9733 33.7554 37.9155 33.5892C37.9034 33.5369 37.9034 33.4825 37.9155 33.4302C37.9292 33.3554 37.927 33.2785 37.9089 33.2046C37.8908 33.1307 37.8573 33.0616 37.8106 33.0018C37.6695 32.8404 37.432 32.8259 37.2198 32.7979C37.0076 32.77 36.7641 32.6899 36.7038 32.4836C36.6604 32.3356 36.7267 32.1548 36.6327 32.0334C36.589 31.984 36.5327 31.9475 36.4699 31.9278C36.3152 31.8576 36.1414 31.8422 35.9768 31.8842C35.6959 31.9764 35.5259 32.3089 35.233 32.3502C35.1887 32.3589 35.1429 32.3538 35.1015 32.3356C34.9906 32.2798 34.981 32.1184 34.9014 32.0274C34.7676 31.8854 34.5144 31.9776 34.3504 31.872C34.2517 31.7891 34.188 31.6716 34.172 31.5432C34.1003 31.3049 34.085 31.053 34.1274 30.8078Z" fill="black"/>
</g>
<path opacity="0.1" d="M40.2712 39.6811C40.0687 39.9554 39.8384 40.209 39.66 40.4978C39.4662 40.7826 39.372 41.1241 39.3923 41.4686C39.5768 41.2781 39.6624 41.0136 39.7781 40.7745C39.9759 40.3692 40.27 40.0258 40.5196 39.6544C40.5666 39.5828 40.8704 39.169 40.7173 39.152C40.5895 39.1338 40.34 39.5877 40.2712 39.6811Z" fill="black"/>
<path d="M41.3563 65.6469C41.5022 66.1178 41.6493 66.5898 41.8313 67.0473C42.1593 67.8427 42.572 68.5999 43.0622 69.3057C43.3783 69.7704 43.7179 70.2184 44.0798 70.6479C44.5331 71.1854 45.0443 71.7267 45.1986 72.4135C45.2914 72.8104 45.2601 73.2242 45.2987 73.6271C45.3372 74.0299 45.4687 74.462 45.7954 74.7047C46.0281 74.8782 46.3258 74.9304 46.6116 74.9753C46.8165 75.008 47.0721 75.019 47.1782 74.8406C47.2153 74.7677 47.2347 74.687 47.2349 74.6052L47.2843 74.0117C47.294 73.8831 47.3398 73.7193 47.4676 73.7132C47.5954 73.7071 47.6593 73.8783 47.7678 73.9559C47.9124 74.0579 48.1294 73.9559 48.209 73.8018C48.2751 73.635 48.2794 73.4498 48.2211 73.28C48.1333 72.9422 47.9754 72.627 47.7578 72.3551C47.5403 72.0832 47.2679 71.8607 46.9588 71.7024C46.7441 71.6153 46.5382 71.5076 46.3439 71.3808C46.1466 71.2081 45.9831 70.9999 45.8617 70.7668C44.7429 68.9125 43.618 67.0485 42.8284 65.0304C42.6728 64.6698 42.5677 64.2892 42.5161 63.8994C42.4775 63.5026 42.539 63.1034 42.5643 62.7053C42.6111 61.9903 42.5451 61.2723 42.369 60.578C42.3305 60.3957 42.2625 60.2211 42.1677 60.0611C41.8422 59.5647 41.0826 59.4907 40.6004 59.8329C40.4228 59.9704 40.2756 60.1436 40.1681 60.3414C40.0606 60.5393 39.9951 60.7575 39.9759 60.9821C39.9409 61.385 40.1712 61.8025 40.2881 62.1774C40.6426 63.3351 40.9986 64.4916 41.3563 65.6469Z" fill="#A1616A"/>
<path opacity="0.05" d="M41.3563 65.6469C41.5022 66.1178 41.6493 66.5898 41.8313 67.0473C42.1593 67.8427 42.572 68.5999 43.0622 69.3057C43.3783 69.7704 43.7179 70.2184 44.0798 70.6479C44.5331 71.1854 45.0443 71.7267 45.1986 72.4135C45.2914 72.8104 45.2601 73.2242 45.2987 73.6271C45.3372 74.0299 45.4687 74.462 45.7954 74.7047C46.0281 74.8782 46.3258 74.9304 46.6116 74.9753C46.8165 75.008 47.0721 75.019 47.1782 74.8406C47.2153 74.7677 47.2347 74.687 47.2349 74.6052L47.2843 74.0117C47.294 73.8831 47.3398 73.7193 47.4676 73.7132C47.5954 73.7071 47.6593 73.8783 47.7678 73.9559C47.9124 74.0579 48.1294 73.9559 48.209 73.8018C48.2751 73.635 48.2794 73.4498 48.2211 73.28C48.1333 72.9422 47.9754 72.627 47.7578 72.3551C47.5403 72.0832 47.2679 71.8607 46.9588 71.7024C46.7441 71.6153 46.5382 71.5076 46.3439 71.3808C46.1466 71.2081 45.9831 70.9999 45.8617 70.7668C44.7429 68.9125 43.618 67.0485 42.8284 65.0304C42.6728 64.6698 42.5677 64.2892 42.5161 63.8994C42.4775 63.5026 42.539 63.1034 42.5643 62.7053C42.6111 61.9903 42.5451 61.2723 42.369 60.578C42.3305 60.3957 42.2625 60.2211 42.1677 60.0611C41.8422 59.5647 41.0826 59.4907 40.6004 59.8329C40.4228 59.9704 40.2756 60.1436 40.1681 60.3414C40.0606 60.5393 39.9951 60.7575 39.9759 60.9821C39.9409 61.385 40.1712 61.8025 40.2881 62.1774C40.6426 63.3351 40.9986 64.4916 41.3563 65.6469Z" fill="black"/>
<path d="M34.3275 85.4735C34.5457 85.5499 34.7776 85.578 35.0075 85.556C35.0244 85.3667 35.2776 85.3242 35.4656 85.3339C35.5566 85.3309 35.6468 85.3518 35.7273 85.3946C35.7743 85.425 35.8105 85.4686 35.8563 85.5002C35.938 85.5453 36.0295 85.569 36.1227 85.5694L37.1017 85.6519C37.5381 85.6895 37.9926 85.7235 38.4013 85.5669C38.4827 85.541 38.5551 85.4921 38.6099 85.4262C38.7208 85.266 38.6099 85.0366 38.4568 84.9201C38.3037 84.8036 38.1059 84.7515 37.9516 84.6325C37.6116 84.3716 37.5646 83.8838 37.385 83.493C37.2573 83.2467 37.0998 83.0172 36.916 82.8098C36.7828 82.6317 36.6277 82.4715 36.4543 82.3329C36.0612 82.0477 35.6103 82.0538 35.1486 82.0125C34.8231 81.9834 34.5168 81.964 34.2829 82.2552C33.9936 82.6193 34.1093 83.3474 34.1274 83.7721C34.15 84.3436 34.2169 84.9125 34.3275 85.4735Z" fill="#514E7F"/>
<path opacity="0.05" d="M34.3275 85.4735C34.5457 85.5499 34.7776 85.578 35.0075 85.556C35.0244 85.3667 35.2776 85.3242 35.4656 85.3339C35.5566 85.3309 35.6468 85.3518 35.7273 85.3946C35.7743 85.425 35.8105 85.4686 35.8563 85.5002C35.938 85.5453 36.0295 85.569 36.1227 85.5694L37.1017 85.6519C37.5381 85.6895 37.9926 85.7235 38.4013 85.5669C38.4827 85.541 38.5551 85.4921 38.6099 85.4262C38.7208 85.266 38.6099 85.0366 38.4568 84.9201C38.3037 84.8036 38.1059 84.7515 37.9516 84.6325C37.6116 84.3716 37.5646 83.8838 37.385 83.493C37.2573 83.2467 37.0998 83.0172 36.916 82.8098C36.7828 82.6317 36.6277 82.4715 36.4543 82.3329C36.0612 82.0477 35.6103 82.0538 35.1486 82.0125C34.8231 81.9834 34.5168 81.964 34.2829 82.2552C33.9936 82.6193 34.1093 83.3474 34.1274 83.7721C34.15 84.3436 34.2169 84.9125 34.3275 85.4735Z" fill="black"/>
<path d="M34.723 66.3059C34.424 66.4029 34.2938 66.7779 34.3492 67.0898C34.4047 67.4017 34.5904 67.6711 34.7435 67.9478C35.1799 68.7329 35.368 69.6309 35.7345 70.4501C36.0082 71.0568 36.3783 71.6272 36.6484 72.2412C36.9184 72.8553 37.086 73.5482 36.922 74.1998C36.8425 74.5166 36.6881 74.8066 36.5857 75.1185C36.4842 75.4565 36.418 75.8042 36.3879 76.156C36.2552 77.3511 36.2314 78.5559 36.3168 79.7554C36.3175 79.9016 36.3479 80.0461 36.406 80.1801C36.4675 80.3015 36.5736 80.4228 36.5266 80.5442C36.5061 80.5939 36.4615 80.6303 36.4398 80.6789C36.3771 80.8148 36.5025 80.9592 36.617 81.0563C36.5965 81.0927 36.5691 81.1247 36.5361 81.1504C36.5032 81.176 36.4655 81.1948 36.4253 81.2055C36.5075 81.2582 36.5706 81.3361 36.6053 81.4276C36.6401 81.5192 36.6446 81.6196 36.6182 81.714C36.5169 81.7298 36.5109 81.8863 36.5748 81.9688C36.6387 82.0514 36.74 82.1023 36.7858 82.1958C36.8128 82.2719 36.8098 82.3555 36.7775 82.4295C36.7453 82.5035 36.6861 82.5623 36.6122 82.5938C36.4616 82.6522 36.2973 82.6648 36.1396 82.6302C35.8722 82.5927 35.6082 82.5343 35.3499 82.4555C35.2149 82.4288 35.0939 82.3539 35.0093 82.2447C34.9247 82.1355 34.8821 81.9992 34.8894 81.8608C34.8297 81.3669 34.8115 80.8688 34.8351 80.3718C34.8773 77.9642 34.8351 75.5541 34.7314 73.1477C34.6892 72.1769 34.3999 71.2364 34.0273 70.3433C33.8214 69.8868 33.5924 69.4413 33.3413 69.0084C32.8036 68.0182 32.3286 66.9211 32.4516 65.7986C32.4649 65.6773 32.5083 65.5329 32.6276 65.5134C32.6743 65.5084 32.7214 65.5164 32.7639 65.5365C33.0115 65.6529 33.2512 65.7859 33.4812 65.9345C33.8592 66.1576 34.2853 66.285 34.723 66.3059Z" fill="#464353"/>
<path opacity="0.05" d="M34.723 66.3059C34.424 66.4029 34.2938 66.7779 34.3492 67.0898C34.4047 67.4017 34.5904 67.6711 34.7435 67.9478C35.1799 68.7329 35.368 69.6309 35.7345 70.4501C36.0082 71.0568 36.3783 71.6272 36.6484 72.2412C36.9184 72.8553 37.086 73.5482 36.922 74.1998C36.8425 74.5166 36.6881 74.8066 36.5857 75.1185C36.4842 75.4565 36.418 75.8042 36.3879 76.156C36.2552 77.3511 36.2314 78.5559 36.3168 79.7554C36.3175 79.9016 36.3479 80.0461 36.406 80.1801C36.4675 80.3015 36.5736 80.4228 36.5266 80.5442C36.5061 80.5939 36.4615 80.6303 36.4398 80.6789C36.3771 80.8148 36.5025 80.9592 36.617 81.0563C36.5965 81.0927 36.5691 81.1247 36.5361 81.1504C36.5032 81.176 36.4655 81.1948 36.4253 81.2055C36.5075 81.2582 36.5706 81.3361 36.6053 81.4276C36.6401 81.5192 36.6446 81.6196 36.6182 81.714C36.5169 81.7298 36.5109 81.8863 36.5748 81.9688C36.6387 82.0514 36.74 82.1023 36.7858 82.1958C36.8128 82.2719 36.8098 82.3555 36.7775 82.4295C36.7453 82.5035 36.6861 82.5623 36.6122 82.5938C36.4616 82.6522 36.2973 82.6648 36.1396 82.6302C35.8722 82.5927 35.6082 82.5343 35.3499 82.4555C35.2149 82.4288 35.0939 82.3539 35.0093 82.2447C34.9247 82.1355 34.8821 81.9992 34.8894 81.8608C34.8297 81.3669 34.8115 80.8688 34.8351 80.3718C34.8773 77.9642 34.8351 75.5541 34.7314 73.1477C34.6892 72.1769 34.3999 71.2364 34.0273 70.3433C33.8214 69.8868 33.5924 69.4413 33.3413 69.0084C32.8036 68.0182 32.3286 66.9211 32.4516 65.7986C32.4649 65.6773 32.5083 65.5329 32.6276 65.5134C32.6743 65.5084 32.7214 65.5164 32.7639 65.5365C33.0115 65.6529 33.2512 65.7859 33.4812 65.9345C33.8592 66.1576 34.2853 66.285 34.723 66.3059Z" fill="black"/>
<path d="M30.6805 63.3788C30.5246 63.278 30.3448 63.221 30.1597 63.2137C29.9451 63.2247 29.7619 63.3666 29.5943 63.5026C29.3957 63.656 29.2072 63.8222 29.03 64.0001C28.6631 64.3938 28.4075 64.8791 28.2896 65.4057C28.1717 65.9323 28.196 66.4811 28.3597 66.9951C28.537 67.5303 28.8613 68.0023 29.182 68.4647L29.833 69.4064C30.8264 70.842 31.8198 72.2776 32.8603 73.6792C32.8605 73.7136 32.8716 73.7471 32.892 73.7748C32.9124 73.8025 32.9409 73.823 32.9736 73.8333C33.011 73.843 33.058 73.8418 33.0809 73.8733C33.0915 73.893 33.0961 73.9154 33.0942 73.9377C33.0919 74.0413 33.0723 74.1439 33.0363 74.241C33.0194 74.2731 33.0151 74.3103 33.0243 74.3454C33.058 74.4243 33.2003 74.3794 33.2461 74.4534C33.2762 74.502 33.2389 74.5651 33.1991 74.6063C33.1593 74.6476 33.1099 74.6937 33.1171 74.7507C33.1243 74.8078 33.2232 74.8721 33.2196 74.9425C33.2196 74.9837 33.1834 75.0153 33.1581 75.048C33.1226 75.1003 33.1065 75.1633 33.1124 75.2263C33.1184 75.2892 33.1461 75.3481 33.1906 75.3927C33.2594 76.0771 32.8892 76.7276 32.8157 77.4096C32.6951 78.4872 33.1834 79.5393 33.2425 80.6206C33.2389 80.7422 33.262 80.8632 33.31 80.9749C33.4101 81.1618 33.6717 81.2746 33.6584 81.487C33.6395 81.5743 33.6149 81.6602 33.5849 81.7443C33.5644 81.8656 33.6222 81.987 33.6247 82.1083C33.6271 82.2297 33.5198 82.3789 33.4064 82.3304C33.4916 82.6168 33.5676 82.9056 33.6343 83.1969L35.9129 83.3862C35.9375 83.18 35.9306 82.9713 35.8924 82.7673C35.8454 82.5452 35.7465 82.3389 35.6947 82.1193C35.661 82.0111 35.6515 81.8968 35.6669 81.7846C35.6824 81.6723 35.7223 81.5649 35.7839 81.47C35.7245 81.4707 35.6668 81.4503 35.6209 81.4123C35.575 81.3744 35.5439 81.3213 35.5331 81.2625C35.5141 81.1442 35.5161 81.0233 35.5392 80.9057C35.5995 80.3075 35.3499 79.7177 35.3571 79.117C35.3644 78.6437 35.5295 78.1886 35.6127 77.7239C35.7912 76.7288 35.6055 75.65 36.0455 74.741C36.312 74.1937 36.6809 73.587 36.3819 73.0566C36.2348 72.7945 35.9744 72.6149 35.8044 72.3674C35.6658 72.1334 35.5619 71.8803 35.4958 71.6162C35.1449 70.524 34.5771 69.5095 34.0792 68.4707C33.941 68.2104 33.8384 67.9324 33.7742 67.6443C33.739 67.3915 33.7261 67.1361 33.7356 66.881C33.7356 66.423 33.7078 65.9655 33.6524 65.5109C33.6411 65.3118 33.5846 65.1179 33.4872 64.9442C33.3888 64.8128 33.266 64.702 33.1255 64.6178C32.378 64.102 31.4883 63.8072 30.6805 63.3788Z" fill="#464353"/>
<path d="M33.4113 86.3145C33.6301 86.3898 33.8622 86.4175 34.0924 86.3958C34.1093 86.2065 34.3613 86.164 34.5494 86.1737C34.6403 86.1707 34.7305 86.1916 34.811 86.2344C34.858 86.2647 34.8942 86.3096 34.9412 86.34C35.0227 86.3856 35.1144 86.4094 35.2076 86.4091L36.1854 86.4917C36.623 86.5293 37.0763 86.5645 37.4863 86.4067C37.5675 86.3812 37.6396 86.3322 37.6936 86.2659C37.8045 86.1057 37.6936 85.8776 37.5405 85.7611C37.3874 85.6446 37.1897 85.5912 37.0366 85.4723C36.6954 85.2114 36.6496 84.7248 36.4687 84.334C36.3422 84.0869 36.185 83.8569 36.0009 83.6496C35.8673 83.4718 35.7118 83.312 35.538 83.1739C35.1462 82.8875 34.694 82.8935 34.2335 82.8523C33.9068 82.8232 33.6006 82.805 33.3679 83.095C33.0785 83.459 33.1943 84.1872 33.2111 84.6131C33.2338 85.1846 33.3007 85.7535 33.4113 86.3145Z" fill="#514E7F"/>
<path d="M43.5107 59.407C44.7572 59.407 45.7676 58.3899 45.7676 57.1352C45.7676 55.8806 44.7572 54.8635 43.5107 54.8635C42.2643 54.8635 41.2538 55.8806 41.2538 57.1352C41.2538 58.3899 42.2643 59.407 43.5107 59.407Z" fill="#A1616A"/>
<path d="M41.3816 57.8099C41.0585 58.0902 40.5943 58.1108 40.17 58.1545C39.2625 58.2484 38.3792 58.5057 37.5622 58.9142C37.4491 58.9632 37.3467 59.0341 37.2608 59.1229C37.1875 59.2192 37.1353 59.33 37.1077 59.4481C37.0301 59.7037 37.001 59.9717 37.0221 60.2381C37.0517 60.4965 37.1255 60.7478 37.2403 60.9808C37.5535 61.6335 38.0369 62.1884 38.6388 62.5863C38.7449 62.6658 38.8653 62.7239 38.9933 62.7574C39.2899 62.8193 39.5768 62.647 39.8698 62.5693C40.1362 62.4994 40.4171 62.5082 40.6787 62.5948C40.9198 62.6773 41.1839 62.8278 41.4226 62.7271C41.5754 62.6411 41.6941 62.5048 41.759 62.3412C41.9895 61.9026 42.1952 61.4513 42.375 60.9893C42.4396 60.8089 42.5141 60.6323 42.5981 60.4602C42.8597 59.959 43.3118 59.5719 43.5372 59.0513C43.5601 59.0116 43.574 58.9673 43.5777 58.9215C43.5815 58.8757 43.5751 58.8297 43.5589 58.7868C43.5172 58.7287 43.4593 58.6844 43.3926 58.6593C43.0592 58.4672 42.7554 58.2273 42.4908 57.947C42.3425 57.8038 42.07 57.4167 41.8566 57.3827C41.6167 57.3415 41.5444 57.6691 41.3816 57.8099Z" fill="#A1616A"/>
<path d="M41.4347 62.4262C41.173 62.5475 40.8644 62.4953 40.5811 62.4359C39.8505 62.2818 39.1114 62.1264 38.4351 61.8085C38.2238 61.7271 38.0407 61.5854 37.9082 61.4007C37.826 61.2428 37.7759 61.0699 37.7611 60.8923L37.6406 60.0428C37.5972 59.7479 37.6719 59.4749 37.6792 59.1763C37.6838 59.1433 37.6818 59.1096 37.6733 59.0773C37.6648 59.045 37.65 59.0147 37.6297 58.9882C37.5885 58.9534 37.5351 58.9363 37.4814 58.9409C37.1427 58.947 36.9377 59.305 36.7002 59.5477C36.5629 59.6878 36.3989 59.7984 36.218 59.8729C36.0009 59.9627 35.7357 60.0258 35.6453 60.2442C35.6091 60.3353 35.6139 60.4384 35.5754 60.5294C35.4235 60.8935 34.776 60.7721 34.6109 61.1362C34.5638 61.2381 34.5675 61.3655 34.4903 61.4456C34.4131 61.5257 34.2685 61.5245 34.1491 61.5439C33.6777 61.6216 33.4499 62.1689 33.0472 62.4274C32.7084 62.6458 32.272 62.641 31.9067 62.8109C31.7041 62.9055 31.5245 63.0536 31.3099 63.1155C31.0953 63.1773 30.853 63.1446 30.6227 63.1506C30.5981 63.1483 30.5734 63.1511 30.5499 63.1588C30.5265 63.1665 30.5049 63.179 30.4864 63.1955C30.4721 63.2175 30.4627 63.2423 30.4587 63.2683C30.4548 63.2942 30.4564 63.3207 30.4635 63.346C30.5752 64.0636 30.8706 64.7395 31.3207 65.3072C31.7708 65.8749 32.36 66.3149 33.0303 66.5837C33.1081 66.6086 33.182 66.6446 33.2497 66.6905C33.4547 66.8446 33.4908 67.1759 33.7235 67.2851C33.8075 67.3149 33.898 67.3206 33.9851 67.3018C34.0721 67.2829 34.1522 67.2402 34.2166 67.1783C34.345 67.0539 34.4658 66.9218 34.5783 66.7827C34.7908 66.5594 35.0696 66.4116 35.3728 66.3616C35.6525 66.3167 35.9648 66.3495 36.1914 66.176C36.2841 66.0903 36.3704 65.9978 36.4494 65.8993C36.6174 65.7416 36.8167 65.6216 37.0342 65.5474C37.6284 65.311 38.2565 65.1721 38.8944 65.136C39.4888 65.1032 40.1 65.1578 40.6619 64.9636C40.8077 64.9181 40.9422 64.8416 41.0561 64.7391C41.1769 64.6076 41.2667 64.4504 41.3189 64.2792C41.5216 63.6831 41.5616 63.0431 41.4347 62.4262Z" fill="#F6B17A"/>
<path d="M38.5255 59.0781C38.6919 59.0623 38.8594 59.0781 39.027 59.0781C39.2235 59.0781 39.4177 59.0295 39.6142 59.0283C39.9254 59.0334 40.2268 59.1385 40.4745 59.3282C40.7222 59.5179 40.9031 59.7823 40.991 60.0829C41.0075 60.1309 41.0105 60.1826 40.9994 60.2321C40.9929 60.2566 40.9779 60.2779 40.9571 60.2922C40.9363 60.3064 40.9111 60.3127 40.8861 60.3098C40.8209 60.1303 40.7355 59.9589 40.6317 59.7989C40.4448 59.5422 40.1785 59.3552 39.8746 59.2674C39.5715 59.181 39.2523 59.1693 38.9438 59.2334C38.8148 59.2577 38.6895 59.2917 38.5641 59.3268L37.9613 59.4943C37.8503 59.5246 37.7382 59.555 37.6309 59.595C37.5477 59.6266 37.4055 59.7419 37.3235 59.7467C37.2126 59.7467 37.3018 59.6496 37.3512 59.5841C37.4497 59.449 37.5874 59.348 37.7455 59.2953C37.996 59.192 38.2578 59.1191 38.5255 59.0781Z" fill="#F6B17A"/>
<path d="M40.047 65.9017C40.1929 66.3725 40.3387 66.8446 40.522 67.3021C40.8495 68.0977 41.2623 68.8549 41.7529 69.5604C42.069 70.0251 42.4086 70.4731 42.7705 70.9026C43.2226 71.4402 43.7277 71.9814 43.8893 72.6671C43.9821 73.0651 43.9508 73.4789 43.9894 73.8806C44.0279 74.2823 44.1593 74.7155 44.4849 74.9582C44.7188 75.1305 45.0165 75.1827 45.3023 75.2288C45.506 75.2616 45.7616 75.2725 45.8689 75.0941C45.9053 75.021 45.9247 74.9405 45.9256 74.8587L45.9738 74.2653C45.9847 74.1366 46.0305 73.9728 46.1571 73.9667C46.2836 73.9607 46.35 74.1318 46.4585 74.2095C46.6031 74.3114 46.8201 74.2095 46.8997 74.0553C46.9653 73.8884 46.9695 73.7034 46.9118 73.5335C46.8236 73.1959 46.6655 72.8809 46.448 72.6091C46.2305 72.3372 45.9584 72.1146 45.6495 71.9559C45.4345 71.8685 45.2282 71.7608 45.0334 71.6343C44.8357 71.4615 44.6722 71.2528 44.5512 71.0191C43.4312 69.166 42.3063 67.3021 41.5178 65.2828C41.3623 64.9224 41.2568 64.5423 41.2044 64.153C41.167 63.7561 41.2273 63.3569 41.2538 62.9589C41.3005 62.2438 41.2346 61.5259 41.0585 60.8316C41.0201 60.6491 40.9516 60.4743 40.856 60.3146C40.5316 59.817 39.7709 59.7442 39.2887 60.0864C39.1109 60.2239 38.9635 60.397 38.8558 60.5948C38.7481 60.7927 38.6824 61.0109 38.6629 61.2357C38.628 61.6385 38.8595 62.056 38.9752 62.431C39.3312 63.5895 39.6885 64.7464 40.047 65.9017Z" fill="#A1616A"/>
<path d="M46.7936 55.5284C46.8117 55.3391 46.6429 55.1644 46.4512 55.043C46.2493 54.9389 46.0555 54.8196 45.8713 54.6862C45.7001 54.537 45.6061 54.3428 45.4349 54.1936C45.2403 54.0444 45.0194 53.9336 44.7839 53.8671C44.2829 53.6903 43.757 53.5957 43.2262 53.5868C42.6897 53.5868 42.1411 53.7081 41.7373 53.9836C41.6376 54.0467 41.5515 54.1292 41.4841 54.2263C41.4204 54.3428 41.3795 54.4705 41.3635 54.6025C41.2673 55.0097 41.137 55.4079 40.9741 55.793C40.8065 56.2214 40.6281 56.6655 40.2339 56.9968C39.8119 57.3499 39.1669 57.5538 38.8884 57.981C38.8576 58.0189 38.836 58.0636 38.8253 58.1114C38.8147 58.1592 38.8152 58.2089 38.8269 58.2564C38.8667 58.3644 38.9945 58.4385 39.1126 58.5064C39.7974 58.902 40.3882 59.4154 40.692 60.0282C40.9958 60.641 40.9874 61.3631 40.5546 61.9274C40.3954 62.1361 40.176 62.3836 40.3315 62.5936C40.5726 62.9127 41.3792 62.7295 41.5673 63.0669C41.6263 63.1749 41.5914 63.2974 41.5914 63.4151C41.5914 63.7695 41.9302 64.0838 42.3413 64.2476C42.7524 64.4114 43.2286 64.4503 43.6916 64.4709C43.8145 64.1928 43.8266 63.8779 43.7253 63.5911C43.6945 63.5292 43.6823 63.4596 43.6904 63.3909C43.7249 63.3145 43.7785 63.2484 43.8459 63.1991C44.3402 62.7283 44.2353 62.0366 43.9387 61.4771C43.6421 60.9177 43.1792 60.4068 43.0068 59.8182C42.9212 59.5258 42.9212 59.1969 43.1515 58.9542C43.2836 58.8375 43.4261 58.7331 43.577 58.6423C43.8467 58.4581 44.0544 58.1957 44.1726 57.89C44.3113 57.5028 44.2932 57.0405 44.6958 56.7796C45.0829 56.5369 45.6266 56.6073 46.0546 56.441C46.3837 56.3099 46.7671 55.8063 46.7936 55.5284Z" fill="#464353"/>
<path d="M70.1705 74.5432C68.332 73.7774 67.7918 73.2241 67.7918 72.1161C67.7918 71.2667 68.1632 70.2861 69.7908 70.2861C70.6905 70.2728 71.5743 70.526 72.3322 71.0142L72.8615 69.6053C72.2478 69.2413 71.3822 68.9027 70.1139 68.8602V66.7972H69.0445V68.9452C67.0998 69.2643 65.9738 70.6041 65.9738 72.3698C65.9738 74.2204 67.0588 75.1997 69.2193 76.0504C70.7842 76.6923 71.6028 77.4156 71.6028 78.5854C71.6028 79.799 70.5889 80.6703 69.0879 80.6703C67.9052 80.6703 66.5645 80.2662 65.8038 79.7553L65.2962 81.1799C66.0365 81.7127 67.3048 82.0949 68.5297 82.1168V84.2647H70.349V82.0525C72.5191 81.6884 73.6873 80.1108 73.6873 78.4362C73.6873 76.5431 72.3479 75.4363 70.1705 74.5432Z" fill="url(#paint1_linear_58_116)"/>
<path d="M68.5345 83.7794V81.6315C67.3096 81.6096 66.0413 81.2274 65.301 80.6946L65.8086 79.2699C66.5694 79.7808 67.91 80.1849 69.0927 80.1849C70.5937 80.1849 71.6028 79.3136 71.6028 78.1001C71.6028 76.9303 70.7794 76.207 69.2145 75.5687C67.0588 74.7192 65.969 73.7387 65.969 71.8881C65.969 70.1224 67.095 68.7827 69.0397 68.4635V66.3156H70.1091V68.3785C71.3774 68.421 72.243 68.7608 72.8567 69.1237L72.3274 70.5265C71.5695 70.0383 70.6857 69.7851 69.7859 69.7984C68.1584 69.7984 67.787 70.7777 67.787 71.6284C67.787 72.7339 68.3272 73.2873 70.1657 74.0554C72.3431 74.9486 73.6825 76.0553 73.6825 77.9484C73.6825 79.6291 72.5203 81.2031 70.3441 81.5647V83.7794H68.5345Z" fill="#F6B17A"/>
</g>
<defs>
<linearGradient id="paint0_linear_58_116" x1="36.869" y1="51.5821" x2="36.869" y2="28.4159" gradientUnits="userSpaceOnUse">
<stop stop-color="#808080" stop-opacity="0.25"/>
<stop offset="0.54" stop-color="#808080" stop-opacity="0.12"/>
<stop offset="1" stop-color="#808080" stop-opacity="0.1"/>
</linearGradient>
<linearGradient id="paint1_linear_58_116" x1="65.301" y1="75.5322" x2="73.6873" y2="75.5322" gradientUnits="userSpaceOnUse">
<stop stop-color="#808080" stop-opacity="0.25"/>
<stop offset="0.54" stop-color="#808080" stop-opacity="0.12"/>
<stop offset="1" stop-color="#808080" stop-opacity="0.1"/>
</linearGradient>
<clipPath id="clip0_58_116">
<rect width="142" height="88" fill="white"/>
</clipPath>
</defs>
</svg>
