<svg width="44" height="44" viewBox="0 0 44 44" fill="none" xmlns="http://www.w3.org/2000/svg">
<path d="M31.1667 33C29.1317 33 27.5 34.6317 27.5 36.6667C27.5 37.6391 27.8864 38.5718 28.574 39.2594C29.2616 39.947 30.1942 40.3333 31.1667 40.3333C32.1392 40.3333 33.0718 39.947 33.7594 39.2594C34.4471 38.5718 34.8334 37.6391 34.8334 36.6667C34.8334 35.6942 34.4471 34.7616 33.7594 34.0739C33.0718 33.3863 32.1392 33 31.1667 33ZM1.83337 3.66667V7.33334H5.50004L12.1 21.2483L9.60671 25.74C9.33171 26.2533 9.16671 26.8583 9.16671 27.5C9.16671 28.4725 9.55302 29.4051 10.2406 30.0927C10.9283 30.7804 11.8609 31.1667 12.8334 31.1667H34.8334V27.5H13.6034C13.4818 27.5 13.3652 27.4517 13.2793 27.3658C13.1933 27.2798 13.145 27.1632 13.145 27.0417C13.145 26.95 13.1634 26.8767 13.2 26.8217L14.85 23.8333H28.5084C29.8834 23.8333 31.0934 23.0633 31.7167 21.945L38.28 10.0833C38.4084 9.79001 38.5 9.47834 38.5 9.16667C38.5 8.68044 38.3069 8.21413 37.9631 7.87031C37.6193 7.52649 37.1529 7.33334 36.6667 7.33334H9.55171L7.82837 3.66667M12.8334 33C10.7984 33 9.16671 34.6317 9.16671 36.6667C9.16671 37.6391 9.55302 38.5718 10.2406 39.2594C10.9283 39.947 11.8609 40.3333 12.8334 40.3333C13.8058 40.3333 14.7385 39.947 15.4261 39.2594C16.1137 38.5718 16.5 37.6391 16.5 36.6667C16.5 35.6942 16.1137 34.7616 15.4261 34.0739C14.7385 33.3863 13.8058 33 12.8334 33Z" fill="#F6B17A"/>
</svg>
