<svg width="40" height="40" viewBox="0 0 40 40" fill="none" xmlns="http://www.w3.org/2000/svg">
<path d="M10 17.5C9.33696 17.5 8.70107 17.7634 8.23223 18.2322C7.76339 18.7011 7.5 19.337 7.5 20C7.5 20.663 7.76339 21.2989 8.23223 21.7678C8.70107 22.2366 9.33696 22.5 10 22.5C10.663 22.5 11.2989 22.2366 11.7678 21.7678C12.2366 21.2989 12.5 20.663 12.5 20C12.5 19.337 12.2366 18.7011 11.7678 18.2322C11.2989 17.7634 10.663 17.5 10 17.5ZM17.5 20C17.5 19.337 17.7634 18.7011 18.2322 18.2322C18.7011 17.7634 19.337 17.5 20 17.5C20.663 17.5 21.2989 17.7634 21.7678 18.2322C22.2366 18.7011 22.5 19.337 22.5 20C22.5 20.663 22.2366 21.2989 21.7678 21.7678C21.2989 22.2366 20.663 22.5 20 22.5C19.337 22.5 18.7011 22.2366 18.2322 21.7678C17.7634 21.2989 17.5 20.663 17.5 20ZM27.5 20C27.5 19.337 27.7634 18.7011 28.2322 18.2322C28.7011 17.7634 29.337 17.5 30 17.5C30.663 17.5 31.2989 17.7634 31.7678 18.2322C32.2366 18.7011 32.5 19.337 32.5 20C32.5 20.663 32.2366 21.2989 31.7678 21.7678C31.2989 22.2366 30.663 22.5 30 22.5C29.337 22.5 28.7011 22.2366 28.2322 21.7678C27.7634 21.2989 27.5 20.663 27.5 20Z" fill="#7077A1"/>
</svg>
