<svg width="17" height="21" viewBox="0 0 17 21" fill="none" xmlns="http://www.w3.org/2000/svg">
<path d="M2.25033 21C1.67741 21 1.18696 20.8042 0.778971 20.4125C0.370985 20.0208 0.166992 19.55 0.166992 19V9C0.166992 8.45 0.370985 7.97917 0.778971 7.5875C1.18696 7.19583 1.67741 7 2.25033 7H3.29199V5C3.29199 3.61667 3.7998 2.4375 4.81543 1.4625C5.83105 0.4875 7.05935 0 8.50033 0C9.9413 0 11.1696 0.4875 12.1852 1.4625C13.2008 2.4375 13.7087 3.61667 13.7087 5V7H14.7503C15.3232 7 15.8137 7.19583 16.2217 7.5875C16.6297 7.97917 16.8337 8.45 16.8337 9V19C16.8337 19.55 16.6297 20.0208 16.2217 20.4125C15.8137 20.8042 15.3232 21 14.7503 21H2.25033ZM2.25033 19H14.7503V9H2.25033V19ZM8.50033 16C9.07324 16 9.56369 15.8042 9.97168 15.4125C10.3797 15.0208 10.5837 14.55 10.5837 14C10.5837 13.45 10.3797 12.9792 9.97168 12.5875C9.56369 12.1958 9.07324 12 8.50033 12C7.92741 12 7.43696 12.1958 7.02897 12.5875C6.62099 12.9792 6.41699 13.45 6.41699 14C6.41699 14.55 6.62099 15.0208 7.02897 15.4125C7.43696 15.8042 7.92741 16 8.50033 16ZM5.37533 7H11.6253V5C11.6253 4.16667 11.3215 3.45833 10.7139 2.875C10.1062 2.29167 9.36838 2 8.50033 2C7.63227 2 6.89442 2.29167 6.28678 2.875C5.67914 3.45833 5.37533 4.16667 5.37533 5V7Z" fill="black"/>
</svg>
