<svg width="18" height="29" viewBox="0 0 18 29" fill="none" xmlns="http://www.w3.org/2000/svg">
<path fill-rule="evenodd" clip-rule="evenodd" d="M16.2939 7.99865C16.6828 7.77643 17.1667 8.05723 17.1667 8.50512V27.4947C17.1667 27.9426 16.6828 28.2234 16.2939 28.0012L13.6622 26.4974C13.3035 26.2924 12.8632 26.2924 12.5045 26.4974L9.92613 27.9707C9.35225 28.2986 8.64775 28.2986 8.07388 27.9707L5.4955 26.4974C5.13683 26.2924 4.69651 26.2924 4.33784 26.4974L1.70608 28.0012C1.3172 28.2234 0.833336 27.9426 0.833336 27.4947V8.50512C0.833336 8.05723 1.3172 7.77643 1.70608 7.99865L4.33784 9.50251C4.69651 9.70746 5.13683 9.70746 5.4955 9.50251L8.07388 8.02915C8.64775 7.70122 9.35225 7.70122 9.92613 8.02915L12.5045 9.50251C12.8632 9.70746 13.3035 9.70746 13.6622 9.50251L16.2939 7.99865ZM6.08334 14.4999C5.76117 14.4999 5.5 14.7611 5.5 15.0833C5.5 15.4054 5.76117 15.6666 6.08334 15.6666H11.9167C12.2388 15.6666 12.5 15.4054 12.5 15.0833C12.5 14.7611 12.2388 14.4999 11.9167 14.4999H6.08334ZM6.08334 17.4166C5.76117 17.4166 5.5 17.6778 5.5 17.9999C5.5 18.3221 5.76117 18.5833 6.08334 18.5833H11.9167C12.2388 18.5833 12.5 18.3221 12.5 17.9999C12.5 17.6778 12.2388 17.4166 11.9167 17.4166H6.08334ZM6.08334 20.3333C5.76117 20.3333 5.5 20.5944 5.5 20.9166C5.5 21.2388 5.76117 21.4999 6.08334 21.4999H11.9167C12.2388 21.4999 12.5 21.2388 12.5 20.9166C12.5 20.5944 12.2388 20.3333 11.9167 20.3333H6.08334Z" fill="white"/>
</svg>
