<svg width="53" height="53" viewBox="0 0 53 53" fill="none" xmlns="http://www.w3.org/2000/svg">
<path d="M13.25 11.5938C13.25 10.276 13.7735 9.01213 14.7053 8.08031C15.6371 7.14849 16.901 6.625 18.2188 6.625H34.7812C36.099 6.625 37.3629 7.14849 38.2947 8.08031C39.2265 9.01213 39.75 10.276 39.75 11.5938V13.25H43.0625C44.8196 13.25 46.5047 13.948 47.7471 15.1904C48.9895 16.4328 49.6875 18.1179 49.6875 19.875V34.7812C49.6875 36.099 49.164 37.3629 48.2322 38.2947C47.3004 39.2265 46.0365 39.75 44.7188 39.75H39.75V41.4062C39.75 42.724 39.2265 43.9879 38.2947 44.9197C37.3629 45.8515 36.099 46.375 34.7812 46.375H18.2188C16.901 46.375 15.6371 45.8515 14.7053 44.9197C13.7735 43.9879 13.25 42.724 13.25 41.4062V39.75H8.28125C6.96346 39.75 5.69963 39.2265 4.76781 38.2947C3.83599 37.3629 3.3125 36.099 3.3125 34.7812V19.875C3.3125 18.1179 4.01049 16.4328 5.25292 15.1904C6.49535 13.948 8.18044 13.25 9.9375 13.25H13.25V11.5938ZM36.4375 11.5938C36.4375 11.1545 36.263 10.7332 35.9524 10.4226C35.6418 10.112 35.2205 9.9375 34.7812 9.9375H18.2188C17.7795 9.9375 17.3582 10.112 17.0476 10.4226C16.737 10.7332 16.5625 11.1545 16.5625 11.5938V13.25H36.4375V11.5938ZM16.5625 34.7812V41.4062C16.5625 41.8455 16.737 42.2668 17.0476 42.5774C17.3582 42.888 17.7795 43.0625 18.2188 43.0625H34.7812C35.2205 43.0625 35.6418 42.888 35.9524 42.5774C36.263 42.2668 36.4375 41.8455 36.4375 41.4062V34.7812C36.4375 34.342 36.263 33.9207 35.9524 33.6101C35.6418 33.2995 35.2205 33.125 34.7812 33.125H18.2188C17.7795 33.125 17.3582 33.2995 17.0476 33.6101C16.737 33.9207 16.5625 34.342 16.5625 34.7812Z" fill="#7077A1"/>
</svg>
