<svg width="18" height="16" viewBox="0 0 18 16" fill="none" xmlns="http://www.w3.org/2000/svg">
<path d="M12.3545 8.48485L11.1682 7.31313C11.2909 6.68013 11.1068 6.08754 10.6159 5.53535C10.125 4.98316 9.49091 4.76768 8.71364 4.88889L7.52727 3.71717C7.75909 3.60943 7.99432 3.52862 8.23295 3.47475C8.47159 3.42088 8.72727 3.39394 9 3.39394C10.0227 3.39394 10.892 3.74747 11.608 4.45455C12.3239 5.16162 12.6818 6.0202 12.6818 7.0303C12.6818 7.29966 12.6545 7.55219 12.6 7.78788C12.5455 8.02357 12.4636 8.25589 12.3545 8.48485ZM14.9727 11.0303L13.7864 9.89899C14.3045 9.50842 14.7648 9.08081 15.167 8.61616C15.5693 8.15152 15.9136 7.6229 16.2 7.0303C15.5182 5.67003 14.5398 4.58923 13.2648 3.78788C11.9898 2.98653 10.5682 2.58586 9 2.58586C8.60454 2.58586 8.21591 2.61279 7.83409 2.66667C7.45227 2.72054 7.07727 2.80135 6.70909 2.90909L5.44091 1.65657C6 1.42761 6.57273 1.25589 7.15909 1.14141C7.74545 1.02694 8.35909 0.969697 9 0.969697C11.0591 0.969697 12.8932 1.53199 14.5023 2.65657C16.1114 3.78114 17.2773 5.23906 18 7.0303C17.6864 7.82492 17.2739 8.56229 16.7625 9.24242C16.2511 9.92256 15.6545 10.5185 14.9727 11.0303ZM15.3818 16L11.9455 12.6465C11.4682 12.7946 10.9875 12.9057 10.5034 12.9798C10.0193 13.0539 9.51818 13.0909 9 13.0909C6.94091 13.0909 5.10682 12.5286 3.49773 11.404C1.88864 10.2795 0.722727 8.82155 0 7.0303C0.286364 6.3165 0.647727 5.6532 1.08409 5.0404C1.52045 4.42761 2.01818 3.87879 2.57727 3.39394L0.327273 1.13131L1.47273 0L16.5273 14.8687L15.3818 16ZM3.72273 4.52525C3.32727 4.87542 2.96591 5.25926 2.63864 5.67677C2.31136 6.09428 2.03182 6.54545 1.8 7.0303C2.48182 8.39057 3.46023 9.47138 4.73523 10.2727C6.01023 11.0741 7.43182 11.4747 9 11.4747C9.27273 11.4747 9.53864 11.4579 9.79773 11.4242C10.0568 11.3906 10.3227 11.3535 10.5955 11.3131L9.85909 10.5455C9.70909 10.5859 9.56591 10.6162 9.42955 10.6364C9.29318 10.6566 9.15 10.6667 9 10.6667C7.97727 10.6667 7.10795 10.3131 6.39205 9.60606C5.67614 8.89899 5.31818 8.0404 5.31818 7.0303C5.31818 6.88215 5.32841 6.74074 5.34886 6.60606C5.36932 6.47138 5.4 6.32997 5.44091 6.18182L3.72273 4.52525Z" fill="#0E0B1C"/>
</svg>
